<mxfile host="Electron" agent="Mozilla/5.0 (Windows NT 10.0; Win64; x64) AppleWebKit/537.36 (KHTML, like Gecko) draw.io/27.0.9 Chrome/134.0.6998.205 Electron/35.4.0 Safari/537.36" version="27.0.9">
  <diagram name="Page-1" id="n_VM0mpq8aBUDjteHYSO">
    <mxGraphModel dx="1026" dy="632" grid="1" gridSize="10" guides="1" tooltips="1" connect="1" arrows="1" fold="1" page="1" pageScale="1" pageWidth="850" pageHeight="1100" math="0" shadow="0">
      <root>
        <mxCell id="0" />
        <mxCell id="1" parent="0" />
        <mxCell id="D-2691LFuYxoZoFbfcj9-4" value="" style="sketch=0;points=[[0,0,0],[0.25,0,0],[0.5,0,0],[0.75,0,0],[1,0,0],[0,1,0],[0.25,1,0],[0.5,1,0],[0.75,1,0],[1,1,0],[0,0.25,0],[0,0.5,0],[0,0.75,0],[1,0.25,0],[1,0.5,0],[1,0.75,0]];outlineConnect=0;fontColor=#232F3E;fillColor=#7AA116;strokeColor=#ffffff;dashed=0;verticalLabelPosition=bottom;verticalAlign=top;align=center;html=1;fontSize=12;fontStyle=0;aspect=fixed;shape=mxgraph.aws4.resourceIcon;resIcon=mxgraph.aws4.iot_core;" parent="1" vertex="1">
          <mxGeometry x="590" y="360" width="120" height="120" as="geometry" />
        </mxCell>
        <mxCell id="D-2691LFuYxoZoFbfcj9-57" style="edgeStyle=orthogonalEdgeStyle;rounded=0;orthogonalLoop=1;jettySize=auto;html=1;flowAnimation=1;" parent="1" source="D-2691LFuYxoZoFbfcj9-7" target="D-2691LFuYxoZoFbfcj9-17" edge="1">
          <mxGeometry relative="1" as="geometry">
            <Array as="points">
              <mxPoint x="1060" y="640" />
            </Array>
          </mxGeometry>
        </mxCell>
        <mxCell id="D-2691LFuYxoZoFbfcj9-7" value="" style="sketch=0;points=[[0,0,0],[0.25,0,0],[0.5,0,0],[0.75,0,0],[1,0,0],[0,1,0],[0.25,1,0],[0.5,1,0],[0.75,1,0],[1,1,0],[0,0.25,0],[0,0.5,0],[0,0.75,0],[1,0.25,0],[1,0.5,0],[1,0.75,0]];outlineConnect=0;fontColor=#232F3E;fillColor=#ED7100;strokeColor=#ffffff;dashed=0;verticalLabelPosition=bottom;verticalAlign=top;align=center;html=1;fontSize=12;fontStyle=0;aspect=fixed;shape=mxgraph.aws4.resourceIcon;resIcon=mxgraph.aws4.lambda;" parent="1" vertex="1">
          <mxGeometry x="950" y="360" width="120" height="120" as="geometry" />
        </mxCell>
        <mxCell id="D-2691LFuYxoZoFbfcj9-14" value="" style="shape=image;verticalLabelPosition=bottom;labelBackgroundColor=default;verticalAlign=top;aspect=fixed;imageAspect=0;image=data:image/png,iVBORw0KGgoAAAANSUhEUgAAANwAAAFQCAYAAADUXxCWAAAAAXNSR0IArs4c6QAAAARnQU1BAACxjwv8YQUAAAAJcEhZcwAADsMAAA7DAcdvqGQAALFjSURBVHhe7P1neFxXeqCLvjtVzqhCzokkCII5SKRIUVnqIHVyO7U72G17Zuyx5zr72Ncah+nJZ2wfn7k9c47bY49ju4O73S2ppVZOVGAOYABA5Fw57nh/VKEEgiAJSiRIUPU+zyc9RK3atXfV/vZa64uCZVkWgGVZnDhxgj/7sz/jm9/8JvF4HF3XWQsIgsDGjRv5xV/4BTo7OwHI5/PkcrmlQ28almWh6zqpVIrR0VFOnznD4cOHGR0dXTPfY4UbhyAI2O12Ojo6+NKXvsQXvvAFQqEQ0pNPPvmkaZq8/fbb/P7v/z7f/va3SSQSmKa59Bi3LYIgUF1dze5duwiFQgDour6qN7ogCEiShNPppLa2lq7OTnp6eqirq8OyLNLpNJqmLX1bhTsYXdeZnZ3l6NGjZDIZNm/ejGCapnXq1Cn+4A/+gO9///uk0+ml77vtuR1muOWwLAtVVclms+TzeQqFwpp6kN1KBEFAURQcDge5XI6XX36Z5374Q1Kp1NKhtz2CIBAOh/mlX/olhPHxcevf//t/z1//9V8TjUaXjl0T3K4Kt5TS6r3CChAEAZvNhtPpJJPJ8M///M/84ze+QTweXzp0TSAIAs3NzYj/8A//wD/+4z8Si8WWjqlwgxEEoSLvQ+4ELMtiZGSkqHBTU1OVp2+FCjcZy7IQ33333TtO2e6066lw5yCqqrr0bxUqVLhJiEv/UKFChZtHReEqVFhFKgpXocIqUlG4ChVWkYrCVaiwilQUrkKFVaSicBUqrCJ3rMJVnN8VbkfuWIWrUOF2pKJwFSqsIhWFq1BhFakoXIUKq0hF4SpUWEUqClehwipSUbgKFVaRisJVqLCKVBSuQoVVpKJwFSqsIhWFq1BhFakoXIUKq8h1K5zNphAJ+2lpilBXG8Jht3GHlA6sUGFFiKKA1+PE43YiS9enQgJwzbB6WZYIh7xs7m1nXVcD/oAbURbBsMjlClwYnOToiUHGJ6IU1NWvny8sqbxsWRb5fJ58Pr90aIU1grCo8nI6nb6llZcFAex2Gw11IXo3tNDeWovTaQcgk8kzMjbLiTPDjI3NUlA1rpaoIgFPLv3jYpxOG5s3tvGxx3azeXsboSYf9rCCXCXh9TnwVbmob6qis7keSRCZnUugaqvXRIPbpJlHhRuLUGqOoigKqqpy7tw5Tp85c0seouEqH/fc3cND921j4/oWamuCBAMeAn434SofzY1hujrq8bidxOJpcjm1nB62tHL0VedDm01hc28bjz28g9bOatRqnelwjImqKNPBGKOROWaCCbKRPOF2Hw89sJV77t6IdJ3TbIUKtyvBgIcH7t3CwXv6aKyvwum0XaJEoijgcNioqwlyYN8mHrl/O7XVgfKY7u5u3G43LDxEfhKe7AOWymZgsyDQB/hn54jGBonODRCLj1C4OIo2MEZqZozc9AR6jQscCl7FSXMkwuRUjJnZ1Zv6KzPcncftMMPZ7Qr37e9j7109eD3Ocq8DfyBCQ9N6AqEawEIt5AELmyITCnoxTZOJyXkKBY29e/cyNzdHIBAgEAggfQ6erAWWSg1QbVrY8llizjgJMUZCTmAfSuE6n8Y2lsY+nEYZSZHWYujNfkyHREBw0xSJcOjdsxjG6rRmqijcncetVjhBgPXdzTx031ZCAQ8ANruTvm33s+eeT9LetZWW9k20tvdhszmJzk1gGBqKIuNy2pmaiTMfTdHVVZzh9u7dS19fH6JHkriSuG0SepOEWi+iNoiEkhJVcQm3JeFCwm1K2FTwHImSPXyKjJRBlw0iER/ruxqXXkOFCmsGu81GV1stNdUBAGTFRs+mfWzaci8eTxAjkcLM5vH4qujdcoCNm/cjihKCAKGQl462Wuw2hWeeeQafz8ehQ4f49re/jbgzGORKsiMQZGPQR22Li/Wymx2alx7vpVLncGDXBJwjWaxEhnlvClmWaGutWXoNFSqsGfw+F9WRorIBBII1NLVuRJEUzr70Et/8xV/ku//23zJ49CiybKelva+0xASH3UYk7MfhsGEYBi+99BKZTIampqarG01WQrXdjk0UMWcTFOZmMQUDQRTwe4sbxQoV1iJ2u4Lb5Sj9S8Dp8uHxhigMj/DXv/mbvPYP/8AP/+f/5Pn//t9JTU/jcHoIVdUXRwvgdNhwOhQaGxu59957Wb9+Pbquf3CFyxsGCzs10RIQLAHLAsMwloysUGFtYZVc1IIAAhZgoScSxObncQOyYZCZn0fLZkvjF7+3KHa7jerqatLpNBMTE9dWOMECe0FAWMaZlzMMxvJ58hiYIQeyy41giZimyVx07fVirlBhgUJBI5MtQKnkYjabIp2K4Vy/ngc+/3mUdesI79hB3xNP4K2vJ5dNEp+fKo/P51UKBY2hoYv80z/9E8lksmg0Gc3luJKMZXPEZwoUxlVmTJVRqcB04T0ZzeVIahqGxwZ7OrHV1eLS7GiazrkLY0suoUKFtUMylWVmNoFpFmeaZHyOkYun0ASTj/3Wb/Ez//W/8qX//J/Z99nPgmgxMnSSWHQCSso6O58glyuUZ7d3332X5557DnEgk+FKMpjOMD2VZW42T3Q+z3lnjkEhx4hWlIQCuUYH2sFOHG3NBApe/AkXp86MMDo+v+QSKlRYO+QLGgNDk8zOJbAsUNUcF/rf4eTRF4nHZ6g/uJ/I5o2kkzOcOvYS584cwjRNLMtibj7J4NAUBVVn06ZN+Hw+IpEIfr8faR08mQCWk6QAmsOOpyqIFPQiuB2YYRd6jQsj4oJNjbCjFXdDM17DgzfjZGY4wbe/+ybR2OotKSt+uDuPW+2HoxQn6XTaqK8LYrMpaGqeeGyK2elhZqcvMjZ8hsHzhxkbPkMuW7zfM5k87x4b4OiJIbLZAh0dHdjtdjo7O6mpqUEagSdPA8uKIDDpdxPsW0/D9o04WxtRWuuRW+uwNzVgr6shYK/Fn/fgTTiZGorx7A+Pcu7C+KqWGq8o3J3H7aBwmqYTjadxOGxUVfmw2RQMXSOdipGIzRCPTpFKRtG0YtvuXF7l2IkhXnvzDHNzyXIQfX19PYVCgWQyiZSGJ9PAlSSmGczmVCzJTiRUQ9Abwil5cAte3LoLX9aJMW9y6ugIL750gv5zY2ja6looKwp353E7KBxANldgdi6OqhoEfC5cLgeCIGBZJpZVtM+bZnEZ+dqbZ3j1zdNMTkUxzOJrmUyG6elpxsfHmZqaWll6jiiKuF12amtCtDSHaaivwu1yUFB1pmfiDF2cZnIqSiKZWbVwrsUIlfScOw7htkrPEXA57dTXhljX1UBnex1VIR+WZRGNpRgcmqL/whgTk1Ey2cJVV3crUrjFKLKMYpMQBQHTstB1A00zrvohN5uKwt153E4Kt4AgCNgUCcWmIMsiWGAYJqqqoWr6VfPgFrimH24pmq6TzRZIZ/JkswVUVb+lylahwmphWRYFVSedzhGPZ4gnMqTSOQrqypSN96NwFSpUeP9UFK5ChVXkuhVOFEVsNgWnw4bdriCK132INc+CBbQiOmbJGvdhQhAEZElCliWE66ygtWKjiSJLhEJeqiMBaiJ+3G4HqqozM5NgejbOfDRJvqCueC17I1kwmvzCL/wCXTfZaKJpGmfPnqVQKMbZfdipqamhrq4OSZKWvvSBuN2MJoJQTLsJBjwEAm78Pg+WZZFKZYklMsTjabK5a98TAmApioLD4UAURfL5/CU3kySJVIW8bOppZcvmdpqbw9jtSvl107SYmIhy/MRFjh4fZGIqiq6vvh9utayUmUyGr/3FX6zaD7+4GM01jVOCwMIT73qfvO+XXbt2sf+ee3A4FlJZbgy3k8LZbQqNDWE2bWxh4/oWGutD5QeMpulMzcQ5fXaU4yeHGB2fo7Bo4qmrq6O+vh5ZlrEsC0mSpCc7OzvZuHEjLS0t+P1+pqenMU0TSRJpqKvi/gObueeejfibXWR9KhlHnqy9QNZeQLXpOEN22utrCQd8xOJporH0pWd8kxGWcXwbhoF+ExzfmqZx9OjRm6LMixVKKNXPEEvOX5uiYLPZUGw2bItEKYmsKMiShCCKxado6VhLj3mjaWhooKWlBVmWl770gRBuE8e33SbTt7GNBw9uYfuWTqpC3ku2UZIk4ve5aGmqpr42hKrqxOIZtFLlOr/fT0dHB+FwGK/XiygIAh6Ph+npaQYHB/H5fGXtlWWRmuoAbq+Di8lpjiaGOJIb4J3ChbIcy11k2hGnENJY19vIw/dvJ1zlK59QhWtjWRaWZRX3BrKM3eHA5Xbj9Xrxer14PB5cbjcutxt36f+L/10WjwePx4PH68Xj9eJ0OlFsNsTS77kQXFthZUiSyPruJu6/dzNdnfXYbcWVnd3uwh+I4PNHsDtcCIKAIku0tdRy3/4+etY3lVeBuq6jaRqFQgFN05Asy3oyHo8zOTnJ7Owss7Oz5PP58k2QTGc5Fx3nZHqY/uQYF8YmGbowzdBQUQaHpzC9Fv6QC5ssU+sOICHSf35s1X7cpTOcAOhrYIZbvFxcWD45nE4cDgeKoiDLMpIkIYpieca7EuUZURSRJAlZllFkuTgLKiXjliCUle5qx7oe7uQZrrY6wMMPbKO7owFZkhBFiUhNC53rdtDeuYW6xi58/giWZZDNJgELt9uBIktMTEVJpXPcddddzM7Ocu7cOWKxGKJlWWSz2XKGdiqVKlueTMsipeSYcyaZcySJZdMkhrIkL7wnsYE0b796jiMTA8y5kuCAnVs7qS4VX7kl3KCb6WZiWhYIAnaHA6/Ph9fnw+lylZXjRiiEUFI+m82G2+3G5/Ph9niw2WzlB2qF5ZEkke7OBro76pEkEUEQqW3oYMddH6Vv+wO0dW2jvWsbfdvvZ9vux6hr6IKScbGlqZr21joURcbn8zE1NcXU1BTDw8NIvb29T1ZXV7OcRGojBNcHcfW6CEQChI0wIVeIUPA90TWdTDQHCrQ0V2OTZbyai9m5BBeHp5dex01h6QzHTQxe/qAznGUVE/dtNhsej6e47FOUG6JgV2Nh9lMUpazUhmliGsYH+uw7dYbz+1zs3NZFZ3uxTonHF2TT1oM0tWzAVDVGvvMd4pOTuOvq8QUj2BQ7k+MX0HUVRZFIpbIMDE3icLppbW0ll8uxbt06xHA4zNUkGArii/jweXwEnMViloulqakJu2JncjjK8OQ0OUVFlERqq4NLr+FDjWVZmKaJKIp4PB68Xi82m+2W+DElWcbpcuH1enE4ncX6G5XZ7hLcbgfBUj1KAJ+vikhNMwgi3//KV/jqr/86/++v/Ro//PM/R83mCIUbCFc3ASBLEj6fG6fTzrFjx4hGo+zevZtQKHT9ju+llN0JBY2omUGXdAQBbLYb+8Rbyyws32x2Oz6/H6fTiSRdv9P0RrKwb/R4PLjdbiRJqhhVFiHLEjaleA8LgoCiOLDZnOTHJ3ju619HungR9cwZBp9+muT4OIrNjtPlLb9fkSUUWSKXy3Ls2DFeeOEF+vv7P7jCzc7OoqrFBDybLiOaEsV94bWdgB8GFm5gV2lGWY3l4/UgiiJOpxOP14vNbq8oXAlDN8t5nZZloWkFVLWAzW6npraWKSAlCHhdLhyKgq6r5PPvucN0w0A3DGpqatm4cSOdnZ3cdddd11Y4wRRQEgrlWniLmJmZYXJyEl3UadxYRVdDHbIlYugmo+NzS4d/6FjYry2Y8G90NMaNYvFsZ7fbb4twLaskt4pMJk88kSn/O5WcZ352FLEqxM/8j//BI5/7HI98/vM89PM/j6exgXh0hunJi0AxZSeVypHNFsr7UJvNxszMDIIgLFcAbxE2YAOwDkgBM+99E5ZlgQjVjQE+8qkd1MtV1MYCZGby/OF/+nvSmdXZ4ApLIk0A8vk8uVxu6dAPzEojTRaWkV6fD4ejmCW8FjBNk2QyiVoorGh/ebMiTQAURcHtdt+SSBNRFNh/dy+ffvxubCX/W31jN7v2Pk5VpKFcNtLEIjo/wZsvf5OpiQEA4okMTz93mNcOnaZQ0JBluWikMoziDCeUwoasRf6ZhX9jgpQSkSdEJLuIFBaRvEWRfRJ120M89NmtBN0egmk3Rsrk+z94d9WU7XZkYVnm8XrXlLJRWmL6fD6UkuvgtmGVv0PTtDh7fpz+8+PlKgYTY+d4+Yd/w5kTrzE5OcjExAXOnHiFV5//O6Ynh6C0lBwZm+X8wASqqhMOh9m5cycPP/wwu3fvRnK73U/W1taiqiqmadLa2gqlGUIQBAJeN1va21nf1Uh9KERTc5jGriqaWsM0tYbZ1ddNq1hNMOnBSlocfnuAZ184uqqlFm4nt4BV8q+53G6cTueKZonbjYUlpqZpGNdwG9wstwBQdN4rCrquMzg4yOnTp2/KquVKZLJ5CgWN2pogHo8TURTIZVOMDp9mZPAEQxeOMDx4kmwmAViYpsX45Dwvv36KwYtT6LrBgQMHymF4GzZsQBRFkXXr1tHZ2UlzczM7d+68ZK9hWRZeh5Nddd08um4Hj6zbwQOdW8rSKtbgjTlRR3TeeeUCz/7wKIXC6rcdvp2w2+1rVtkWkCQJr8+HVAq6XW0EQSjGhQoCkizj9nhuilJfDcuyOH12hB88f5TBoSly+feCkguFLIV8tlRMqFj8dXh0hhdfOcGpMyNlHVjY2qRSKV588UUkXdeftCyL7u5u2traOH/+PBcvXix/yQVVZ2IqytR4DEkTsakyclpCSopYUchPqYycneWVV0/x1rtniS3aaK4Wt8sMZ1kWiqLgcrtX/ea4GYiiiCiKaGqxhe5yM93NmuGEUlypoiiYpsno6ChHjx4lk1nd+6tYkSvB1HQM0yr6UaHYd0DTDDLZArNzCU6dGeaHLx7j9NlRcvmi1R4gGo3i9XqJx+MMDAwUA8uFkldfEAQMw1jWSiUIAooiEwp6qA77cTptqJrBfDTJzGwCVdXKZaFXG+E2MJpYllV2atvs9mVvzrWIZVlkMxmy2eyy13SzjCaCIJRXCqqq8tLLL/O1r32N6enViV5aysL9X1sdoLkpQsBfzIdLJDOMjc0xOR1FvUIxrQUlNU2zaDSxLKsc1bycslEao6oaU9Mxjp+6yKF3znHk2AAjo7Pk8+otU7bbCZvdjmK7tAf0WkcoxXvKpZlmtbAsqxzfa1kWuqYtezOvFgv3/8jYLK++cZp/fvotvvfM27z6xmkujs6UCgktf36maZa/u7W7ybiNsCwLWZZx2O1ret92JSRJwn4LZ23TNNHukHIOd97dcYuwlZJA70SEktVSsdlW7aYXSsHWC1xp9lhrVBTuA2JZFqIkrTl/2/WyeJa7U27+W8F1KZwggMtpp7G+iq6Oelqba/B67uwb7Wos3HgOux3pBlvpbjcEQcBWSu35sCuczSZTFfISCnmx25Xr8slLwJML2cWWZeFyFVPGF7cMFkWBqpCPg/s28dhDO7h7zwa2b+5ka187O7Z2UVcdJJPLk87kb4nxRLjFbgGfz4dwB+7dliIIApZpUigUEEoZ5jfTLbAQh6jrOgODg5w4cYJsqb3vaqMoMq3N1dx/YDMfeXgne3dvYNe2brZv6aShLkxe1Ugls8XE4qsg+Xy+Jx9//HE2b96Mpmm0traiqirpdDHy2emwsbm3nU8/vpetfe1EwgG8Hiculx2324Hf56axPkxXRz2CIDAzlygXUFktbqXC2Uqm6w8DgiCAIJSt2R8WhQuHfBy8pzjZbGqtpc7nIuCwEXTaiHicNNcGWbe+Bb/PTTSWvMRBvhQpGAw+KcsyFy5coLa2mEowODhIIpHAblPY2tfBRx/eSUN9FYoiL7t8lCQRr8dJS1ME0zQZGp5Z1WXHrVS4WxEBcSsRRbFcL+bDoHDBoIdHHtjG/u3dNMgSVbEUkdFZgjMx/HMJ3MksroKOw+eipr0ej9tBMl0gFIxQU1NzWUK3ZBjGkwATExOk02k8Hg+Dg4Pk8znaWmp47MEdNDZUlaIOJHz+CM2tG2lu3UgoXI9pmqiFHJZlYrcrNNRWMTUTZ3omtvTcbxq3QuFyuRyCIOB2u+9IV8CVEAQBs6RwlmXR2Nh4xyqc02njvv2bi8qWyeObS+CJprHGkpixHGa8gJFSMZIq2YROSpfR3SECwWpa2zpoa2ujubn5EhHz+Tzj4+Nomsbs7CwvvPACsVgMu93Gpo2tNDdFSut1kfrGbvYe/BH23PMJtu58iB13fZSDD/8U3Rt2Y7MVl1U+n4uPPrwDp9O29PzvOO40J/dKkReqgN3hdLbVsXNrJ/XpPIGZOLaRGJNzBgOylwG7n0G7j3HLQS6uYhuLoQzOo8zl8XlD5dzCpSLabDY2b97Mnj172LVrF5s3b8bhcODzOtmwrglJKpZXC1bVsW33I9TVd2LlVJKT02ixJH5vmC07H6ShaR2iWAx6rqkOsq6zcen533EsFOP5sLEQBria24bVxumw0dleR23Qiy2vIqkGGWzERRsFWQaXC1wuDI+HTCCAWxRpyGRozmRodDjo7u5m06ZNl4koSRKtra34/X5YVCzU7bRTWyp1J8sKdQ0dVFe3EDt7lmd+7/f4nx/9KH/3xS8yfvQoTqeP5rZebLZiPJ0sibS11FxyAXcalmUh3UJls25hmTuhVBH6Tp7dfT4X1ZEAgZk4jmQWbSZLPGdiUdxGLF4m1rW34+7upsXnY31VFS2NjTidztLK8FIRc7kczz//PEeOHOH06dO88847ZLNZ7A5budKsItsJBGsxDYPht9/mne9/n/iJE7z97LOcfPZZjGwWl8eH3eECBERRwOe9sy13oijeEleArutks1mSiQSpVIp8Pr9q0R+Lke/wWc5uU3C57AAYJsQNkYxiw+XxUF1dvXQ4hqKgOp2Ipok9m0XSlk9RK5c67+zsZOfOnWzYsKFcwWnBp2ZaJpquIggCstuNzedDk2VsLhcOTQPDwCxnGViAgGHcmT8EizIDxFV+wufzeSYmJjh//nxRzp1jaHCQ+fn5m2Iguhp3+gy3GEEAWRQQSiF8y20jTFHEsNkQLAtJVRGu8BAUXS4XXV1dJJNJhoeH6enpwe/3k8uppDPF9BZdKzA/M4qmq7Ts3s1dn/88HZ/9LPd8+cv0fOITCE470flJCvlirpJhmMzOJ5Z81J3Fas9wmqYxOjLCxaEh5mZnicfjxGIxJicnGRocJDo/v2oznbAkzvFOpFDQyGQKqA4blk3CrVjYLINkMkkqlVo6HFlVsafTmJJE2uUins8Tj8cvE9Hn85HJZBgcHOT8+fNMTExQU1NDJltgZHQWAMPQmZocZHDgKM7qMAd+7uf4/J/9GY///u8T2biRmZkRhoeOo+vFxDtV0zh3YXzJKd1hrPLTPRaLMTU1hVpKBl3ANE1SqRQTExM3Jf/vStzps1sylWV6Nk7K70Jz2rE5RHzomJrG3NzcJUqUjEZRZ2ZIZjLMZLNMzM8zPDbGxYsXLxOxUCjgcrlwOp3YbDaqqqpIp9Ok0llO9Y+QKzWZy6bjnDzyPKeOvUQ8MY0pmWTzSc6deYPDbz3F3MxoeRl6qn/kji+Tt7AJXi3isRjaFfYFlmWV93OrtadavSu/NeQLGgNDk8zMp0gFvWghFz7RIJzNIGoa0dlZorOzxGZm0EZHyczMMGSanNV1RuNx0uk0+XweXddRVZV8qe+imEwmSafT7Nu3jyeeeKLsj9M0g9NnRznVP4qmFZ2cifgsJ4+9xKsv/AMvPvNXvPzDv+XwoaeZnrpY3MNZFmPjczzz3Lur3pRxtVntG27B0XwlTNO8JP61wgfDsiwGL07xzpELzAmQ87ig2k11QKDGzFOfTVKXTVFTyOCSTDIhL/HaEPN+F6NzM7z22ms899xzzM7OMjIyQn9/P+fPny8aTQqFArlcjlwuRyaTKVufZucSvPzaSU6fHUUtKV0+l2Z+dpTJ8fPMTA2RySSwTBNdNxgemeGpZ99hfDK69PzvOK58698c7A7HVfeMcqk91Wqx2td/K8hmC7x26DRvHR9kzGknVRsgXx/A1eAmFJSpCkn4ap0I6yLIPRHEdg/T8TGOHjnMhQsXGB0d5dChQwBEIhH8fn9R4cxS8c9YLFYsVln6YXXdYPDiFN//wTu89OpJpmbiGMtszOOJDG8dPsd3nzrEqf6RW5IxsJoIQrG179VmnBtNVVUVDnvRTL0UQRAIhkI4S5keq8FqXvutZD6a4oevHOepw+c4bVnM1gZJNIWZ6WlkpqeJaFctsZYwFyWLV949w6tvHGNicrq82pienubNN9/k5Zdf5pVXXkEyTfPJ+fl5xsfHGRsbY2xs7JIe34ZpkkxlGRmdZejiFKPjc8xHU8zOJrg4MsO7R87z8uunOHxkgPGJKOoqZwpwC2Ipjxw5gqqqxVCdq8w6N5KFNlOJROKSpaMgCIRCIVpbWnC53aumcLquo6kq9fX1tN6hsZQLZLIFJqaiDIzOMJHMkpQlkjaFKd3g7GyC148N8MLrpzh+8iKxWOqSCceyrEv2cML1rg4kqdjkTywtOw3DxDCNK6YjrAbCKlft+vOvfY1kMonP70dZxbIKpmmSyWQYHxsjmUwiyzLhSDEq3baKcZ2WZRW3INksO3bs4MD+/TelapfNZsPlcpHL5fjBs8/yN3/zN8zN3TpjnCCAJIooilyMMhKKLjBNN1Zss7jux7NhmKiqRr6gUlA1dOPWKtutYGGPay2zvL6ZiKKI1+tl3bp17Ni5ky1btxb7892CAj+mUSwJt9qfeyuxLNANk1xeJZ0tJlzn8uqKlY33o3AViliWdc3s3puFUCrQKoo3pjXx+8EoKVyF66OicB+AD+tNV/S3ru7sfqdw3QonyxJOhw2P24HLaUeWPzwxdUvRbnFx0lvFlapzf1iQRAG7TcZmk4vpa9eBKAgCfr+fcDhMU1MTLS0tyzYOtNlkGuqr2NrXxv0HNvPogzt46L6t7NreTUtzNS6XfbWjnW45V6tUfSejadqy7qE7GUEQcLsdNDdF2Lypnb17eti7ZwObN7XR0lyNx3Nlo5Eoirjdbmw2W7Fd1Z49e+jp6aG9vZ1169Zx8eLFsoVPkkQiYR+7dqznsQe3s//uXnrWN9PRVktXRz2be9vp7qjH7XaQyRTIZAqrvrdZ6hYoWk+LZQBuNAslFgqFApZpothsN9wkfjtjWRa5bBZD1xFF8Y6vaUJpsmlrqWHfXRt59P5t3HvXRvp6Wtm0oYVtfe2s72wgEPCgqjq5nEoxRa24x3Y6nXR0dLBhw4ZiTZNQKPRkOBwmm80yODhILpfDNE2i0SiSJNJQV8UDB7dwYG8v1WH/ZVOoIIDH46SlsZpwlZ9YPE00dnk09c1kqcJRWvbcTIVbKCJkmWYxCuRDMr1rJZ8Spe/9Tlc4m01mc28bjx7cwo6eFhos8MZSuFJZnMksjmQOvyhR01JLdV01Tk+ASKSOhoYGGhoaaGtro6enh0jJfSOm02kGBwc5fPgwAwMDTE1NkUgUU2uCAQ/77uph+5ZOXE47IGCzOfAHqwlXNxGsqsPhKDpbbTaZnvVNPPLANiJh39LzvmO5WQ722xHLslBX0KTxTkGSRHq6m3hgfx+9kQC1M3GqxmepOjtB1ekx/CfHcB4bQzg1jX4hgR0vnZ3r6e3tLUtHRweBQACPx4PH40HMZrNMTEyQTCbJ5XKMjIwwOzuLLIus62pgy6Z2nA4bIOD1Benu2cOOPR9hz75PsOvuj7Fxy72EIo2IooQkiXR31nNwX99lM+GdyII/Lp/LfSiMJ7quoy6KQrrTqYkE2HtXD+v8HqrmEvhG5jCn0synLGZTEM1AJmchzWdwjUVxTibwisWMm8XS2Nj4XtUuu93O3r17eeyxx3jsscc4ePAgTqcTt8tJb08rfp8LAKfTw4beffRtu5+W9j5qGzpobOmhd8sBtmy/n0CwBqHUQ2vblg5qa4JLz/+OpVAo3PGznGVZaKqKXtq73enIskRXZz1d7fX4MzmUeJZ0XGe8oDBtczHt9DDn8lCorsZVU0OzKLLBsthos9EWidDY2FgWj8eD0+ksdsUF8Hg8pNNpRkdHGR4eRtd1PG4HHa21CKXs3khtK90b70bS4Z2/+Vv+4l/9Ai/+p/+MPhejqWUjrZ2bkaRimJPb7WB9151ftYvSLGd+CGY5wzDIl/q+fxjwuh00N0aozqs4UlmstMas5CAnKYSqa6ipr6emoYFgTQ1KfT2O2lqaTJOaTAaHYSDLclkWf2dioVDgtdde4/jx45w9e5bTp0+Tz+dxOe34vMXZTVEc1NS1YZdtDLzwAj/84z/m7Ne+xj//p//E0ZdfRrAEwpFGHE4PUIw3qylV/PowIJSy3FX1vVazdxKmaVLI5z80ezcAl9tJwO/BllcRCgbZtIGKWOw37nbjdrtxuVzF5iaiiGa3IwCypiEaBsIVHr5i0b/gZt26dezevZvu7m4kSUJWRESx+OWKooTd7sIyTZJzcyRmZxHyedKxGLHz5zHyeWTZhiTJQDET2qbcWKvV7YxQqka8cFPeaei6Tv5DtHejVOrRphT90ZYFumlhAcFgcFk/tSHLRaUzTWz5POKiLcZC6lssFkN0OBz09PTgdDoxTZOdO3fi8XgoFHS0UlCmbmikknMIskxTXx9du3Yh1NbSsWULXfv3I7td5HMZVDUHFPPE0tnLm87f6aiaVvTPXeHpthYxDYNcLvehmt0oLaFVrXj/iyI4bAKiANlsdtlgB1nTsOVy6JbFRC7HyPQ04+PjjI+PMzIywvDwMMPDw4jBYJBkMsnhw4d58803uXjxIo2NjWRzBWbniu4BXSswNT5APDZF3ZYtPPGVr/DT3/wmP/UXf0H7zp0UCjnGRvtRC6UqX7pRLkC0WmQyGZKlakpGqaXSaiKUWjnlczm0O2RpaVlWMY8rn1/1khK3mnQmTyyeJlnlQ3PZ8QoGbk0ll8kwOTlZDF43TRKJBOPj40xNTTGeTDKYSDA5M8P0zAzT09NMT09TKBQwDKOY3J3L5XA6ndjtdmRZZkEBk6ks/efGsEqZzbMzwxx5+2mSmSjBtlbad++mpqcHQ7Q4ffwVhgeOYxjFaTSVynHqzMjSa7ipLCREUnJG34qlnSAI6KVCrbfi8280uq6TSqUQVrlgEiVlv2SlsMqrhkQyy+jYLGksVKcdK+zG7wDZMsnn8wwNDXHx4kXm5uYwUymcc3NkdJ20oaMbGmqpbIlhGKiqSqFQoFAoIOm6/mRnZyddXV10dXURCoU4dOhQeWnU0lSNx12ME4vHZpieHCSfTZPJJJgcP8/ht59m8PwRNK04o+RyKv/01JsMDE0uuYSbhyAI+Hw+duzYQWNjI6ZpoqrFwrU3mqWRJsuh6zqmZa3p3gOaphGLRq+ZAnSzIk10XSeTyeDz+VBVlf7+fk6eOnVTkoqvRKGgUl0dwN8YwZ3JESrk8Gey6JKEpRtIhoHL0omoWUyXQjwcJFbjZ0KN8dxzL/Dqa2/S0NDAK6+8wmuvvcbJkyeRRFF8UlVVPB4PgiBw6tQp5ubmMAyDdCaPIEBtdQiHw4YA5LJJJscvcHHgGGMjZ0gno1hWsR9BNqfy1uFz/OD5o8uuc28Wt5PCLcwGuq6DZSHL8ppSOsuy0DSNVDKJVaowfTVulsItpAB5vV40TeP8+fOcOn16VRUuky2QL2jUVQdwel1oHhcO2aJKNrBrOlVGAb9XxBl2YDQF0FqDzAoF3njrFEMXp9ENg2AwSCgUQtd1mpqais08qqqqyk+U6upqbLZiq6lcXuXQu+d54ZXjjE/Mk89fWoR0AVXTmZmN89qbp/nB80dWvQPq7YZQ8l3m83mymcyacYovKFsmnS7uN66hbHc6lmVxun+EZ14+zpFUlgm/m1h1kFhNEKujCrO9ikxzmKmWGiZCPs7EM7zwyglO949QUIs1RE+cOIGiKGzZsoWmpiYky7KeTKfTzM3NlTd56XS6rFiqqjM1HWNyOoam6himVYyKLmikMznmoynOnR/n1TfP8Pbh88TixXLnq8ntNMMtRdd1LNNEus1nOqtU7GbhAbHSc72ZMxyloIxbNcMBmKbF3HyKmZk4BSw0p52cy0Ha42De7WBGFBnOFTgyMMELr57gzLmxUsZAkYU6r8lkkpGRkZUXERJFEYddIeB3Ewp6cTpsaLpONJYhFk9dd22HG4kgCDQ2NvLzP//z7Nm9u7gkKm32bzSZTIav/cVfEI/Hl760LAsPLsVmw+12r2rRoZWy4NheMHlfz/e2a9cu9t9zzw0vIrSwnA0EAmQyGb7//e/zD1//OtHoral5KooCDruNcNhHQ10VPq8Ly4JUOsvkVJTZuQS5vHrNEpEre4yVfpRsrlgu7OSZYd4+cp6jJ4YYGZshlc7dMmW73VnY0xUKBZKJxKo/oa+FoetkMxlS6fR1K9vNRBRF7KU6nKIoFg1Qt/DcTNMimyv223jjrX6e+eFhfvD8Yd54q5+LIzNksoVrKhvXo3AVPhiSKGKaJulUilQyeVlTjtXGMAzyuRypVIpcyc92uyhbmdL5SJKEy+1GusHL1ltBReFWkYUbOpfLkU6lyGazq14XxSwFBWQzGTKZDJqm3Z7KVopRXUC8Bb7Am0FF4a6CYRhMTk7S39/P1PR75as/CAtLTMMwyGYypFMpMpnMTZ/xTLPosE2n06RTKQqFwk1bQkajUfr7+7lw4cINi/ixFu2H1zLXpXALrYTbWmroWd9MV0c9oaB3xRattUYikeD73/8+f/mXf8n3vvc9Esnk0iHviwWlE0r+ulw2SyqVIplMki9FJ9wodF0nk06TSCSKiraoRfHNUDZd13nl1Vf5y7/8S/7u7/+es+fOLR2yphEEcLsc1NUGqa0J4nE7rmtvKQFPLv3jUgRBIFLl46H7t/HYgzvYs3MdW/s62LKpjW1bO2luDJPO5Ekms7fkKSTcJLfAfDTKs88+y/nz5wHYsX07drv9utwC12JB8RbC0VRVJZfLUcjni82bFynnSij70kqzZy6bLc6epdnseo61Epa6BVRV5YUXXuDIkSOk02na2tro6OhY+rZrIghCOZ/MMAyGh4c5evQomczqu50oZQ+0t9Xy2EM7eOSBbezZuZ6dW7vYvrWLlqZqCgWNaCy99G2XISmK8qTH48Fms9HT00NDQ0MxPqz0FHTYbWzZ1M6Pf+YAfT2thIJe3G4HTqcNl6uYM1dfW8X6rkYEAaZm4milKOvVQhAEXC4X3d3deL1ekskk8XicbDZLLpcjn8+XJVdqy5XL5chms1eV2bk5jhw5QiwWo6qqij179uBwODhyAxVugaXKsPDQyOVyZDOZohKqKlop707TivF6hUKheF3ZLOlUinQ6TaHUCNAqlSK/VnjWB6GxsZG21lYURUEozdjvHj7MxYsXURSFjT3raWtrLe3ILCzTQFXzpEpL6VwuhyCYCMLCjGthmjqaViCbzaFpGgt1d06ePLnqRYQAQkEPDxzcwsce2VVe1XncTjweJwG/m4a6Kno2NBPye5iei5cCRN57v91up7q6mn379iEEg0Grvb0dm81GKBSivr6eZ555hpGREex2hW2bO/jIQzuJhH2lL0QoGY9KXyDFwFLLKppNf/DDIzz74tFVdxNIkoTH4ymakkvnY5ZCqxYSBSmlmyyU8dM07apRILquE4/H0TSNnp4efu1Xf5VAIMBfrNgPZyGYeQTrg30Xl+1fLOs9i8LCn4X3fpcPqlqWaMcSVuYv3LnED6eqBf70T/+UZ37wLC6Xg488fBf33nsf/mATkiSRy0UZvHCc7z39BlPTMex2hSc+sof2zj7CkWbAIp+NMjhwkm999zUk2YZhGESjUWZnZ6/6e90MQkEvjz20gx1bOnE6i7VXL3l4WUUtsCzQNJ3Dxy7wzPNHmJyKYpoWjY2NbNy4kXA4zMDAAEIgELDuvvtubDYbZ8+exe/3k0gkOHf2LB3tdXz68btpaapGEAQkScYXiBCubsLl8qGpeWZnRolHJ9G0onc9ncnxV3/3IkeOD7x3UncAGzdu5Nd/7deorq5esTFAtPK4kq8hqTMIrF5s6Qcl79mO6lqHdYUt/sLMSanRYE1NTTkpU1UL/PGf/CnPPPMMLpeDjz+6m/vvfwhfqB1JkinkZjh35i3+4n8/xfDoDC6nnZ/9wiN0rd9JTV03FhaFbHHMf/nTr5O5hXmVLpeDh+/fyoG9vbicxYYpkqwQqqrHH6gGLBLxOeKxKdRCHihOOq+9eYbnXjxKLJ5m8+bN7N69m/Pnz3Py5EkEWZathS9sfn4er9dLKpXCMnUefWg79+/fjCxLSJJEQ/N6NvYdIBSqQ0bEFCzS2SRnT7/JwNl3KBSK0/3FkRn++L9/55Z+WTeazo4OfuZnfoZIdfXSl66IQpZ2/Xt4zfE1pXCj0n60qntQbC4UmxMA09RRCzkSyTSqZiCJIm63A5fLjaIUq7pZlkk6FeP/+r+/ygsvvLSswqm5Gc4uUjin087PXVHh/oFM9toPtpuBIMCmnlZ+5JP3UB32AwIut4/1vXfT0t6Hy+0DC7KZBCMXT9J/8jUy6QSWZTExGeU7Tx3ixOlhLAvq6+vLe11BFEXL7XaXN72CIJBIJAhXefny5x+muTGCIAiEwo3cfe+nqQrWM9/fT/Ttt/G1t1Nz993k1Axvv/5dhgeLOXH5vMrX/vo5jhwfXHodaxa5VMvieiyyIY/I7342yOY2O2upauD//VQSd/MuWtp6aGzdgmWZqPk4A+fe5R+++UNGx+fweV3cu28Te+7aT6S2A1GU0bU0Z0++zF/+7dOcHxhf0wrndNp55P5tPHz/NkSxWI+1Z/MBejcfwOnyos7NYUoSNr+fQiFD/4nXOPL208WAgrzKS6+d5OnnDpMvaNTX11NbWwtQLLFw77338sADD3DPPfewb98+XC4XLpe9XOpOkhVq6zuoqWlh7Phx/uq3f5v/+Au/wJ/+3M8x+NxzuO1umlp7kJViKI4sS7S1FD/gTkHXdRKJRLk2xUoknkis+p7jRlA0NGXRtDyaVkDXVQy9gKrmyvU5Eok4uVwGXcuhayqaVsDQCqha0WDzHgKWZWAaGoahYZo6LDPbW6aBYeqYpo5lfrA9743A73VRHQmU6/r4g9U0t27E4XAze/o0P/jd3+Wpr3yFoUOHsFkSzW29BKvqAHA4bETCfpxOG52dnTz88MO0tbWxefNmRF3XmZ+f59y5cxw+fJh33nmHfD6Pw24rFwKSZRuBYDWGpjNx5AhzJ09So6rMDQ0x9NJLmJksLrcfh8PNQl11r7e4FKmwdrHJBXLJi+SSw6i5GSyrmHKygCQKWEaKXGqEXGqYXGYcliiLKIKlp4qvp4ZRc7NY5uUPIcFKvPdZ+eXHrCZ2u4LbtdBTXcDh9OL2BBFEkX988km++9Wv8sM/+ROe/3f/jujICA6nh0CoqHCUrPsOh41Nm3p56qmn+PrXv85f/dVfIWqaxpkzZ0ilUoiiSDKZRNd1TNMqB2NalomuFf1aodpaapqbEUIhQl1dhHfuRHC5MA0d0zTKZrPVtlJWuLGk0zkKuTRz0xeYm75AdG6MVCqNVpq9DNMkV1BJJeeZnxlgbuo80dlRkqls2S1kmSa5XJ5Ucp7o7FBxzNwEyVQGveTctyyTdCZHNhMvf1ZsfpJkKs0KYoFvGpZVssC/9xegmGg9PDxMwLLw6Dr5WKxck9Sy3pu5LSywLFKpFPl8vuwflWRZfrKrq4v29nZqa2sJh8OMj4/jsCts3dyO3a6AZaHYHTQ0rcMfjuCvqiLQ2srmT3yC3kcfRXbYGRk6yfhoP4aho+smh48NMDA0dckpf9hw2UUe3OqjvspGaWWyJnjjTIbD51PMzacYvDjF4MUpBi5OcWFwguHRuWKCcckMHo2mGR6dKY87PzjO6Pgcqlb0A2qaQSyeZmi4+PrgxSnOXhhnrDTGNC10w2R6Ns7QxeniZw1NcvbCBBOT8yuKwL8Z2O022ltraKirAkBR7ERqWvF4AxiJBJMjIyiRCBvvv591991Hzshy7vQhctkUlmUxMjbHidPDxOMpIpEIDQ0NVFdXF90CO3bsYGhoiEQiwb333strr71GIZ/mJ37kXjb1tADg9gTZsuNBOrq3IZkCmqoi2+3IDjtjw2c4fOhpZmdGyk+sP/n//TMXR6aXXMaHiyqfzH/4UiPbu9xrymjyX745zT+8HMda4tEzSwpkWcVXJLnYT2LxKNO00PT3OsPKkogsX1rH0TAt9EVjFEUqNqlfMuZWVg5wOGw8dHArjz64HUkSsdkcrOu5i03b7kMyBAaffRbTsmjc3IdcG+HUiVc4dfRFDEMnlyvwwisnePaFozS3FCNtTNNEURSkcDj8pN1uZ3h4mFgshs/nQ5ZlpqamcDhtdLTWoSgSmponEZtG0wooTieyw0Eun2To/FFOHnuJ+bkxLNPENC2OnhjilddPrXqfuNuNtTzDHRvMoGoGumGWxTAuNXaYpoWx6HXdMC9r1GhaxRlssSxEMZXHlGa5q41ZbXTdKBr/WmvwuJ0Yhk4qOY9ayOGvqqFp2y4iG9aTRaP/1Otc6H+7VJcVZmbjvPFWP1PTMe6++26OHTvG4cOHGR0dLcZSdnd3o+s6iqKwbds2jh8/TiqdJpdVCQU9RCIBJFGkUMgRnR9ncnyAkaETDJ0/xsjQSZKJuaKyWRZjE3N8/duvkkiufgjO7cZaVrgTF3Pc4nv+lpNO53A6bdTXVWGzyeiaSjw6xdTEACPDpxk8f5gL/e8wMXqWQr4Y45nO5Hnn8HmOnhwimyvQ2dnJxYsXyZRKV0iapj0pyzLr1q2jo6OD4eFhBgYGSukcGolkBp/XRSjgRZLEop8tlyKTjpPNJtH1YoSJrhuMjM3y/R+8w8DQ5GqXEbwtqSjc2kbXDebmkricNkIhLzabjGkaZLNJkolZkvFZsplEuR5rNlfgyLEBXn3zNHPRZCncSyMajaLrejFSxW63P9nW1obPV2yiqCgK4+PjqKqKaVkk0zmmpuOouoHTacPpsF3m/J2Ppjh+cojnXz7G2Qvj6PqH/JcqUVG4tU++oDE9G0dVddxuJ26X/bL73zBMpqajvPFWP6++eZqpmXjZ2JNKpdC099wpgqIoVktLC263u/zHs2fPXhINL4oibpedutoQ9XUhaiIBnE47mqozO59kYmqeyckoiWQGfck6/8PMWjaa/M0L82j6rV+mSJLE1q1b2bt3L4qi8O677zIwsLI43bq6Ovbs2YPb7ebEiRO8+OKLpErl8K8HQRBwuezU14Zoa6mhtamGQNANlkU8nmFkbJah4WnGJufJ5a5e20QArMVpIZRSQ5ajGMBctDqJgoBF0WplGEX/RIVLWesKJysOPv/5z+P3+5cOAWBqaoqXXnqJkZERfuVXfgVFUS5LnjVNk7GxMV588UUmJ6+/GreiKHzsYx/ji1/8Ih6Ph29961u8+uqrS4ctS29vLz/xEz+By+XimWee4atf/Sqzs++/54UgCMiyiM2mIJd+UN0w0dRi45uV6IBIyclnlirdXknZKI3T9WKsWDZXIJcrlsZbyQdVWHvouo4sy3zmM59ZVh555BEaGxsRRZHOzk6eeOKJy8Z8+tOf5qGHHqKmpmbp4VeMKIpIklTugbEwQVxLHA4HHo8HSZLKf/sgLPgVM5k8iWSWRDJLJpMv+xxXwhp67lZYbURRRJZl4vE4mUymnMCbSqWIx+PE4/FyDwpVVUkmk2Sz2WKRolLZiIW4UvUGdBSSJOmyjqJXQhAE7HZ7uYr47cKKSixUeH+sdaOJhYDf72dqaorBwUEGBgbo7+/n1KlTnDp1iuPHj9Pf308qlcLr9TI6OsrAwAAXLlzgzJkznD59mlOnTnHs2DHOnTv3vrK1JUli/fr1bN26FY/Hw4ULFxgYGLjmjCJJEq2trfT19WEYBhcuXODdd9+9ZSUaFrjuGU5RJNxuBz6vC6/Hid0mL5QPrHCHoes6hw8f5tChQ7z44os899xzPP/887z66qscOnSoHINrWRbvvPMOr7/+Oi+88ALPPfccL7zwAq+++ipvvfUW58+ff1/KthzXUrQFzFKNmJWOvx5kWcLpKFrsZVm6rvv/EoVbWOsupbgeVmhtrmHntm4ePLiFjzy8k4fv38bduzfQ1VGP1+tc9r0V7hxWevOudNz1out6ubnhtVhY5t6o9KhixToXHW117NzWxYF9vezf28vObV10tNfj97mWvf9lWaa9vZ0NGzawYcOGYhGh1tZWGhsbWbduHdXV1czPz5dPVBQFwiEfd+9ez2MP7mDvnh7WdTbQ1lJDR1sdm3paWdfViNvlIJXOkU4XI6MrrP0lpWmB2+0u+2iXstDDQVVVgsEgDodj2ZtO0zSSyeQl/qiVIooiTU1NtLW1kcvlOHbsGCMjIxiljqJXE5fLRV1dHfl8noGBAY4ePfq+ZlpZlmhvreXA3l4ee3A7d+1aT8+6ZnrWNbG5t5UN3U0EAh7yBZVUOndJCNyGDRvYvn07dXV11NTUILjdbuuRRx5BEASqq6uZmprimWeeIZPJIEkiDfVV3L9/M9s2dxQzB66ApumcH5jgqWff5fzAxIc+jpI7wC2gG1BdXU1jY+PSIUCx3/X4+DipVIr29nb8fv9lCmdZFplMhrGxsfe1fxJFkdraWlpaWpAkifHxcebn55cOWxav10tTUxM2m435+XkGBgauu9qazSazZVM7B/b10twaQXMbFJRLHxyyIeHMKEyNxXnhleMcOzFEJlMsc/iZz3yGd999l6GhISzLQjJN88kFV4AgCBw7dqzkq7CoCnm5f/9mdmzrxGEv1q2w2Z14vCE83mAp4RQMQ0MURUJBL8GAl8GLU3dUPZP3S2WGe2/c+53hrFJO2djYGCMjI2XL6Epk4X3Dw8Pvq+KXLIls3NDCQ/dvpbozSNqfJ+nJci4ww7g3zpQnwbQ7ScyWIy1pSG4bcpWdOStHyqZhBSTqepqZN+Mk5SxWUCr2h0skEmiahizLjI+Pk8lkUBSZzZva2L+3F4+7uD/z+kN0dG1nXc9u2ju3UtfYiccXRFPz5HNpBAECfg+CJNJ/bvRDv7SsKNx7496vwt1K6mqDPHz/NhrWV5EK5BgMzHHBGeNNxyTn5ThDcpIhJcEFR4wz9nlO2eYZ8GWItlioGx2w1UO8XSPZYaD12mGrp2g00TSNyclJ3n333XL/LbfLQe+GFvw+FwBOl4eeTfvo23qQxkgbAdFFTW07PX376dt2P8GqOgRBRFEktvW1U18buvTsK1RYQ8iyRFdHA53tdRQ8GnmHxkVHitekSSa1PPOayrymMqepzFg5Jl1JRn0xJvwJMrUWVosdWu3EfFmy1Wb536LH4+Fzn/scX/7yl/nxH/9xvvCFLxAMBvF4HLS31iIIAqIoEalpo3vDHizV4IU//xp//DM/w9d/67fJTEzT2NJDa0dfuZ2Qx+2gu3P5dX+FCmsBr8dJU2MYI2SSsxcYdsY4J8ZIWzrBoJ1w2FmUKifhgJtwwEmwXiLcJFPb6KCuwbmsiKqqMjIywjvvvMMPfvADnnrqKVKpFC5n0dcGoNjs1NS1YZPtDL7wIq9/7WvMPP00r371qxz92tcgnaUq0ojD4YGFjW5NYMklVKjw/ig+9MXrLtm++H1LI/yvhdvlIOT3oMk6CbnAG7YJpswsCOBwSrhc8nvilHHaFexOCYdbwuWW8XiUZUXUNI23336b4eFh0uk0MzMzpRg6sVwiTBQlbDYHlmlSSKXQ0mkE0ySvqqQLBSxAlhQkSaZYCl1AWZJWX2FtI0kSNput2In0CjevUGrAsTDuepTjSiy4Bfbv38/Bgwfp7OwkGAyuSJqbm9m/fz/3338/PT0919UWWZZFZFtxxWZikRV0TBP8ARvSMiZnwRSRDAkEC1PWscTlY5IlSZKe7O7uZsOGDbS2tlJdXc3ExAQet53d29eValYI+ANhGprWYwMKc3NkVJW6PXs48K/+FaHmZmZnRhgeOoGuFdMTzp4f5/TZ0aWf96FirRtNJFnh4MGD7Nixg56eHjZs2EB3dzft7e00NTXhcrmYmZkhlUrx2GOPsXXr1rKDt6uri7a2NhoaGrDZbExPT78vt4Asyxw4cICf/dmf5eDBg6iqSjqdJhAIXFO2bdvGl7/8Ze677z5kWebUqVMr9sO53Q66OxvwNTrJ2zRmbRmiFEAsznBLHyaWYGFKJoIlIGkKoikt2+VBdLvdNDY2Mj4+zsmTJ2loaCAYDJLJFpiZLTas0HWVyfEBotFJqnp7eeh3fofP/T//D5//r/+Vlr4+8rkUY8NnUAvFmg66bjA8OrPkoyqsNQRBoLu7m0984hN85CMf4cEHH+Shhx7iox/9KJ/4xCd48MEHqa+vRxRF9u3bx+OPP85jjz3Ggw8+yMMPP8zHPvYxPvGJT3D//fcTiUSWHn7FyLKMw+HA6/XicrkuWSZeTdxuN4FAAKfTed0zbjqTJxpL4c458Wh2mk0vdkkgk9WZnysGdywWExND1LFMQBewjGKtlqUi+nw+YrEYQ0NDZamtrSWVztF/fgzTLB5wbmaMo+/8gFh8GldjPY07dxBqbqSQz3Dy+MuMXDyFYehYFkRj6Q/97HYnYFkW2Wyx55+maZeIVepMtNDEYyF2cfGYBb+XoijlcR8EWZbLXZCuhVDKFrieZeRiUqksI2OzGCkTh6bQkQ2xUa/CjkguZzA5kXtPprNMx9LMjWtMjxQYG8kycjGzrJSLCJmlMl7btm3j2LFjJBMpTNOkpakaj8cJmCRi00xNDJDNJMikY0yMnufwW08xPHAcXSvWgC8UVL79vUMMXvxw16TkDlhSiqJcLoJz+vTpy+T48eOcOnWKRCJBS0sLFy5c4NSpU5eMWcgWOH36NOn0tRsWLmW5bIHBwcFr+ngXsgU2b978vrIFLAvyeY3amgCNgSpUh05IVig4VGaFPIZlFttUCRaWomPpAlZGwUpLGDkR07AwDQvLsDANiv82KXbP2bFjB21tbSiKQjwe55lnnqFQKOB02Nh3Vw/37d9MMOApG1GWwyr1h3vr3fP847dfRatUXl7zoV23Q4kFRVF4/PHH+dKXvkR1dTX//M//zPe///1rBjCLosjevXv5yZ/8SVRV5amnnuKrX/0qMzMr3+oIAvT2tPDYozsJdLjQXSYJd5bX3WPEHTkEqxjWpWgyUl5BSSnMjKcYHZsjly/m/9XU1OJxu0hnsjQ2NSKKokgqlWJubo7p6WlmZ2fL03++oPLWu+d44eXjjI4XD7JcjGRB1ZiaifPqG2f4wfOHK8pW4aZgmib5RT3Kr4ZZ6iB7LcW8GpYFZ86O8vzzx5g5kcA2IxNIuXl4vpOPznXz0fluPj67ns9M9PKJ4W7uPhIh/O0cwl/MwJ9Pw59P4/zbBI6/TWL731E8f58uWin9fj+6rpPNZjEM45K4M1XVmJqOMT1TbKWqGyZqQSObV0mlcszNJzl7fozX3+rnnSPniSdWNmV/GFjrS8oV3Nc3HVEUaW5upqOjA1VVOXbsGMPDw5dlBiwnXq+XxsZGCoUCFy5ceF/ZAqZpMTefZHYugZE3kTUJJS/jTtqxRRXMWZPEaJb+Y+O8/NpJzpwfI5d7L7s9mUwyOztLIpFgeHgYQRAEa2na+sKmeDGSKBZ7evtcBHxuHA4bmqaXajtkyGTzq97b+3ansqT84IiiSGtrKz09PdhsNs6fP8/ExMTSYcsSCoVYv349DoeDsbExjh07dt0Kt4AkijiddqpCXmpqAvg8LizLIp3OMTObYC6aJJMtXHP2FXivS/SKWaycSxWzwntUFO7GICwqAHS999vCe61SoawPiiCUuqgLJdVZ1ON7JbwvhauwMioK98GRJIm+vj727NmDoigcPXqUwcGVddatra1l586dOJ1OTp06xWuvvfa+LKU3ktuiiJDP58btcuB02i8Tm00ple+79T/+9VLZw31wZFlm165dfPrTn6avr49YLMb8/Dxut/ua0tPTw2c+8xl6e3vJZrOcOHHifS8pbxS3xXP3wL4dfP5zP8oXPv/jl8knnniM5sa6q7okKtzZSJKEoii4XC4cDsdlESVXEpfLhdfrxWazrbi83s3mumY4URQJBtw0NURoqA9TFfIiSiKFgvaBZqBPfPwBHvvYZ+np3cz6DZsukaqqCOf6zzA+PrWsS+J25sMywz14/wH27d1Gb08Xfb3rLpHmplrS6TTpdDHs73pZ7Pj2er2cP39+RUtKQRBobW1l+/btmKZ53Y7vKyGKAn6fh+qIH5/PjSSK6Jp+xXszGAzy0EMPsWnTJtavX78yhRMFgdqaII8+sJ0H7tvKjq2d9PW2sqmnlc29bbS11JDLqyQSmSt+8NU4uH8XG/t2Ybc7URTbJZLJpHn7rUOMjE1+IKW+FXxYFO5zn/scn/zkp9m6bSfbtu+6RFpbmhgeGmB45PrLnLNMpMnAwEC5u9PVkCSJtra2G1aXUlFk1nc18NhDO7jvQB87tnWxta+drX0dtLfWousm87FiycDF3H///UxPTzM4OMjk5GTRaCKW0i1M00QUxXJAJoDdJtPX28bjH9lDVbDYsmoppmmSTOZ49sWjvPrGqbKXfaU8eiDCg/vq8PiqUWx+DD2PqibRCknGJ2J854cznBvOr/gG+CC43W7a2touaW5yNXRdZ3xigqll6uavVaPJH//THN9+u0AqlV1RxeQ/+IPf59FHH8GyShbskuUOy2J8bIA/+7/+mGefP8S2rRv5Fz/7JWrqi111AQr5FF/5D/8nhw8fv+SYCyyNNPnud7/LU089dU2HtiAI3H333fzUT/3U+440WcDvc/HAvVvYs2MdHp8TYcnT0zItslmVw0fP8/Rzh4nG0mX9+eQnP8mhQ4eYmprCsiwkm8325MaNG2lsbERVVRoaGsoefYddYce2bp74yF2Eq3yIYtHEKooigvBeMqAgCDgcNjrb6tENg4sjM9d8Ai2mNpil1j9DJjFEcq6fVPQC2cQIucw0sXiCcyM68eTqmFOlUg17WZZLxpqrS75QAMuiqqqKUCh0ibgcEgc22qkNKmtqhjs3a2ckquD1+i+7pkAggGmaFArF2FmAnX1VeG3TZBJj5NJTpGIXiM+cJDp5mKFzb/HmWyeYmk3T2lzPAw8epL6xHY/Xj8fjwa6IvPjiy4yNXf7AovR7rFu3jq1bt+JwODhx4sSKu+fU1tbS29uLZVnve4YLBjw88ZE97N69DiUgEfenmQokmPdkiHoyxDwZcg4Nl+CgpaYWv9/D9GyCTFbDEkSCwRDrN2wgFKqirr6h2HJ48+bNOJ1OgsEgTU1NzM/Pk8mkaWup5SMP7aSuJgiAJCsEQrU0NK2nvrGLYFU9klRsR2wYBrIs0twYYXI6yvRMbOm5X5HmWmiro3RTWpd4KjJ5GBiFeGp1FE6WZTxeL0qpJv3CbL+cmKaJruu0trTw4z/+4+zcufMSUUST9dUpIt6Fa1sbnJ5UODdp8rGPPc79999/yTVt3LiRaDTK+Ph4eXy18zRC5lWmhp5n4sLTTA4+x/Twy8yOvcnY8GlOD6SJJcHvhuaaDFZhhMTsaeYnDzM58javvH6CmbnlzfWiKNLY2EhTUxOZTKYcaaLr+jXF4XAQiUTIZDKcOXOGEydOkMutfC/pdtl58N6t7NzdhVqlMxVIknAYnNCdDJs2xk2FCUNhWnUynvMwk4yQE9vJyE0UHC0oVeuZKXjA246/aSv2mo3FGU4URU6dOoUsy2zZsoX+/n40Nc++PT1s7m1FFEUkSaGxZT1btj9I94bdNLf1Ut/YRaSmBQRIJebQ9WLlr0jYx9HjQ6jqysqSNddCWz0sl0icycPA2OoqnNfrLXdpuRaGYRAKhejr68Nms10i05MjtPtmCa8xhTs5JtI/rtPXt4VwOHzJNVHqHzg6+l761YZWqK1adIBFZHLF3y+WBKeSocreTyHxLvPjbzM3/jYz4yc42l9UyOWwLItkMkl/fz9vvPEGJ0+eZHp6mkQicU2Znp7m1KlTvPnmmxw7doz5+fkVr7wEQWB9dyMP3LsFoV5g3p2j37Rxer6egclmZmPVzMUizCSqmNAcjOU9DKUDjCXrySsbsFVvxl5blKy9mTkjzKxehbgQ4+Vyucjlcjz11FNMT0/j8ThY39VYqp0uEKyqZfP2B6ir6yAfTTDZf5bM5DRVgVo2br6Xhub1SFKxz0BtTZDO9vql11ChAgCWaWCa+opjLjKZDNPT00xPT5fL8q1EFr8vnX5vX7USnA4bHW21BCJu8orKtCFzZqaR0akGJCOA3fJjt/w4zCDOQjU2xYlQl0SsS2ELWjhcjmVFkiTpyU2bNnH33Xezbt06FEXhwoULhINeHrp/a7EBo2KnrbOPdRv2MH36NN/9gz/g6a98hclDh2javp1gYzOmoTM5fqHY81uAWDzNmRUmoa71Gc7lclFTU0M2m71EJsaG6A7FiPiEtTfDjenUNzQiSRK5XK4syWSSs2fPXtJccaUznN8DXU1Qqk0FgG7A6aHi68shyzJ79uzh85//PAcPHkQQBPL5PH6//5qyadMmfuqnfoqHHnqIYDDI4ODgipeUVSEf27d04e6yk3ConDPsTMaqMQsOalpq8If8eAKeovh8uIJ2bLV5vP4AYWcbwUAEf9h/mYg+nw+/3893v/td/sf/+B84HA5qampwOG0oSrGIiqLY8PtrMFSNgVde4eLzzyMPD3P0+ee58PrrWKqG0+XDZncBAqIg4vU4l17DHYllWYyOjfH1r3/9Mjl+/DjqIuPCWsK0LF588cXLruk73/kOFy9eXDr8piEIApFIhI0bN7JlyxZaWlouU6wrSWNjI1u3bqW3t5fq6urryjq322XcLjsAeUNmJFqDlnXjdLuQRKkYFLlIRFNB0l0gmpi2PEhGOY5zsYh2u510Ok2hUEDXdebm5nC5XCUrXHFOMU0TTcuDIODw+XD6/WC34/b7sbuKjyvd0DHNoqnWKtU1+bAQj8c5duzYZTI5OYl+DfP17YqFxfnz5zl69OglcuLEiRXX9r/RKIqy4hILwAcqsWAtuDYAEQu7pCMADqfjMrcAAKaMqNtLxYTyWMLyv7uYSqWw2+2sX7+ezZs3Ew6HmZ2dJZvNk0oX4850rcDszAiqXqDt7rvZ/vnP0/HZz3Lwy1+mY98+TBGic+MU8hmgaL2bmU0s/awKFT4QoiiuuBiQKIrY7fbrUtDF5PMq6XQeRZdxCCb13hiKrUA6kSKbujwe05JUdFu6WC5P9SCYy3+umM1muXDhAna7nUgkwunTp0kkEqQzeYZHiw3IDUNnevIigxeO4K6rZt+Xv8zjf/RHHPjlX8ZXX8fE2HmGB0+g6UUnaT6vcu7Ce2bj2xG/309rayvt7e1laWtru+6lR4XVQyjVvVwI1Lga7/mLr62cy5FM55ieiePIKjgNiTpnmqA3jqGrxGfipGKp9ySRIJmfIZvIkp1VSU1nScwkic/GLxPRbrfT1dVFY2MjNTU1bNq0CbfbTTqT51T/CNlscQ+SzcQ5ffQljh99nlhmBtGtkDEynDrxCkfefobo3DiWaWJZFsdPXWR88tYsO1bKQvm3T3/602X55Cc/yZ49e973MqTCzcWyLIwVdjVd8JGuZOxyFAoqF4YmmJtJ4ss6qbEsNtRdxFc9iWFq7ynRXIxoZox4YpbMRYnUgEh0JMXc+NyyIgFPqqrKzMwM4+PjTE5OMjc3h6bpZLIFqkJeqiMBRFGgUMgSnZ9gavwCI0OnuDh4jJGLp0gni/4Ny7IYm5jn77/5CqnUyqxBAPfdu5stO/ZT13qA2tZ7qW7aS6B6E76qTkyxirNDKWaj+RUn+a2EjRs3smvXLiKRSLlSr8/nI5/PMzo2BksSba+Ebhjkcjmyy0QwrNVYypNjImfGNBKJ5DVDqFhspSxFHwnFLE1YYqUMh5xs29xGY/NGAtW9ePzNCLKX4/1p5uPLd9ZZiDTZtm0bdrudEydOMDQ0tHTYslRXV7Np0yaA9xVpkkzlcDnttNZU45JsOOwFfP4o06aC7sggOjOIrgySUkBJe7HFA0jzXsycgaEVMHX1MpFM03wykUgwPz9floUvOV9QiSeyBPxuAgE3siRhGgaFfJZsNkk+l8Ywis5tXTcYHZ/ju08d4uLI9HUpx6OPPMyeAz9BVd0W/JEN+MPrCVRvJFS7FcnRyMlTFxgfn35fgdFXoqOjg+7ubuRSAxJKT8X5+XlGRkagonArVridW5robG/DG+zAV9WFJ9CKwxXB5gigGi7OD6vMxXU6O7v5xI/8PJ2bHqe66W4iTXcRrt/OG2+dYXxieulhobQXi0QiBAIBZmdnOXr0KKOjo5f53JYTQRBwOBxEo9Fy2b7rachoGCbTs3FcLjt1viAuyY5TNmiyZ6gPT7POE2eTPUuvLcsWJcsWM4ox9CoX3/oGsTNPkR187jK5araAZVmkUlnGJ6MYhonDoeB0XFpb3bIs5qMpjp26yA9fPMb5gQn0RS1XV8K99+yiZ9NuZNmJKMqIoowk2ZBkB+l0jrfffuuGZwu0trbS2dmJIAjluMgFK+1CFEVF4VamcJ/+0Z9n34M/S23rQWpa7qGm+R5qWw9S134fdm87p/qHGR2bpa4uwvbt23C6fMVisbpOIZ/nxZffYOIKCmeaJlNTUxw6dIgXX3yRM2fOMD8/Tzwev6aMjo7yxhtv8MILL3DixInrdn4DFFSdqakYqmoQsLnxOlz4BJEqVaFKUwhqEuG0jDqe4OS7p3jnrcPMT41j5OKY+cRlIqzE3S+KAi6ng/q6EI31VYSrfDgdNjTdYD6aYmIyytjEHMlU9pL+xitl+9YeWtrWLbsZTqWSnDh+nKnpmRuqcPX19TQ1NV3ymVap0nChUMDucCBeQ+EsyyJfKBCNRpldJgp9rWYL/O2bEt94I8Pw8NglQcpX4g//8A945JFHl/4ZgPGxC/zZn/6f/OCHhwgFfazrbsNdciVRyrY4ceoc89Hb16otCAIup42GuipaW6tpbIzg97mwLEimsoyPR7k4PM3o+Cy5nHpVpV6Rwi0gCAKSJKLIEpIkYpoWmqZjGOYHWu4tdgwuZSFQ+GoX8X640ufZ7XZq6+rwer0VhVuhwv3Kv/l5+no70fXL92ETE1N8/Rv/zPGTA8UCPIJQuu3ewzLNld+EtxBBEJBlCYfDhiJLRX+zplMoaGj6yow516VwHwYcDgd19fUVhbsOhauwctbQbXD7oigKPp/vMnGsMB7zdmWhv/di8Xq979uZXKEyw13G9c5wBVXF43azbt26pS8zNXqWL9yVordZXnMz3LfezNLVvQGfz3fJa6qqcvjw4RUngVa4lOtSOEEQsCkydpuMKBVLMaiqTkH9YEWEbifej8K1trTwxBNPLH2Zt19/jgeazrC+njWncN8+lOOTn/oRmpqaLnktk8nwjW98g9dff/2Sv39YEIRSTKcsARa6bqJqK3ewr+g2EAQBl8tOR1ste3au46H7tvHRR3bxyAPb2XfXRtZ3NxHwu9f08ul6sEr90owVJjNWWPsUK9Z56O5sZM/OdRy8ZxMH7+lj9851rO9uJBT0XvH+XyjZpyjK1f1wlAbXVAfYd1cPD9+3jR1bu+hoq6W5MUJLczXruxpY19WAz+cmnc6RSudWrO23IyvJhzNNk1w+X349EAiwfv36pcOYGB2k3T+3ZjO+N/RsxO/3X/KapmmcOXPmkozvOx1FkenurOfAvk08eO8Wtm3uoKuzga6OenrWNbOuq5FwlQ9N0y9zjdntdnbu3ElXVxfNzc0IgiBYSqlRutPpRNf1soNQkkQa68M8eHALW/s6UJQrB/XqusHg0BTfffotzg1MrFmlczgc1NbV4fF4rrikXHCSi6KIbhh4PB66u7qWDmN67Bxf3JtmU7OyppaUf3dI4ptv5ujo6Mbr9V7yWqFQ4OjRoysOr1rryLLEjq2dHLynj+bGyLJV6yjdE5PTcZ5/6RiHjw+QyRQjWnbv3k11dTXz8/N4PB4Ep9Np7d27F6fTSTgcJpVK8cwzz5BOpwhX+XnkgW3s2t6N3aaAIGBTHDicbiRJwbQMCvkMhXwOyyrmz50bGOev//5Fpkv9wdcaNpsNv9+PdZm3aHmEkuN8uUgTn9PiD36ymm2drjWmcDLfebvA2PgUeqlt2QLFfbuKpl3uc7vTkCWRTRtb+cjDO2mor0IqZR/YHW5sNgdgoaoF1EK2XCtlfGKeHzx/hCPHB8kXVD71qU9x+PBhxsfHS5OYJD3Z2NhYzjUaHBxkbGwMURTZ0tfO/rt7cbscgIDPX0XHuu2s33g3Het20NDUjddXharmyefSgEXA70YUxXJ/8LWIruvk83kKhcJVRVVV1EKBfKFALlus4bhYbLLFA2swtOuN/gxHzyeZj8bfu86SaJq24kI8a526uhCP3L+d9tYaJElClm3U1LXRtX4nnet20NC0Hn+wGiyLXDaFaRq4nHYURWZiKkoylaWhoQGPxwNAIpF4L3hZkiR8Ph9nz54lFovh97q4b/9mWpojRaOJ20/vlntZv/EuqiKNeLwhvL4qQlX1uN0+4vEZ8rk0oigQ8HvoPzdKInl5ot7tjlVKAVmIr7yaLG7+txxrNZby5WMx3j4TRf0Q9/tTZIktfe3ctWs9dpuCKErUN61jy46HaG7vJRiqwx+sJhSuxx+sIZ9LkYjNIIoiNptMLJ5mYnIeQSgGXy/0NxAtyyqXWIhGo+XuIh6Pg/a2GgRBQJQkquta6Vq/C8kQOfaNb/L3v/EbvP3Vr0IyTUPLelo7NiPJRYeox+2gu6NhySWsHaxlalBeS+4kTMtas6UhbhRej5PmhghOR7GuiccbpGv9TqrrWtF1ix/+5//CC//tj0kNXKSmtpV1PXtwuwMA+LwuGhvCOOy28pI8EAjw8MMPI9psNu6//352795NS0sLn/jEJ3A6HMVup6XySjbFQU1tGzbZzvlnn+X7X/kKx/7kT/jH3/s9Th8+jCzbCUcacTiL5cElqdiLoEKFtYrL7SAY9BT7LgJeXxWRmhYkSeFvfumX+Os//EN++Ed/xHf+438kNTpGKNxAuKYZAEkS8XtduFx2RkdHee2115iYmCCbzSJ6vV7y+TzPPPMMf//3f8/09DSR6upL2vsIoohic2AaBvOTk8Smp6FQIDE/z/Trr2Mkk0iygiTJJVODcFWLZoUKtzuyJCLLxXtYEAQUxY4sK+i6zpHXXqM5nUZKJomfO0cyFkOSlPKEAyDJIpIsIssyvb29bN68mTfeeKM4w6mqSj6fR1VVUqkULpeLfF4t9+zWdZVkfBZBEmns6aF50yaESITmDRtovf9+RK+HXCaJWsgBFpZlklqm0EqFCmsFTTdQC0VLrGVZqGoOtZBDlmV27NyJ6vWSDgQIbtmCNxJGU/Nk0++lGGmagaYZtLS0cM8995DJZGhra0MyDOPJdevWleu3t7S08Pbbb2OaBuu6Gop5P6aJaeqEa1qo6eimobeXhr172fXpT9O2bRs5LUv/qdeZnxnFskxUVefF104yORVddAkfPtaq0eR621XdiYiCSFNDmJamagRBwLQsvP4wwWA1nb29uPs2s+HRR9nz6U8RaGpkcuw8/afexNBVNN3gwuAEJ0+PIIoysViMTCaDqqpIlmU9qaoqHo8HWZY5f/48ExMTmIZJKOilpbn4gYV8hnw2hTcYIdLWQWNPD76mRvJantPHX+LiwDE0NY9lWczMJPjuM2+vuLfAnUpF4dYummbg97no7KjHpsjomko+l8bjDRFobqN96zZa+jbh8LqZmRzi+JHnScSKWeuJRIZ3jg4wPDLDnrvuorq6GqfTicfjQXI4HE/29fVRW1uLy+UiHA4zMjJCJpvFME1aGqvxelxYlkkyMcf05CCp5Dyp5DzjI/0ce/sHjF48jaYWPev5gsq3vvcGQxeXT5n/MFFRuLWLZVnk8iq1NUGqI34EoVi5bmpyAK1QnFhS8VkGzh/mxOHnic5NAhaGYXJhYJI33uonnsywYcMGDh06xJEjR7hw4QKCJElWOBzGbi+aPwEmJyfRNA2Hw8be3Rt44N4tBAOeq/bZtiyLbE7l0Nv9fP2fXr+ib+qDIEnFxiJrhaBH5v/40To2tTmRrvLd3W589alZ/un1GKp++7s7rFLbsJvlmtm4vpmPP7abpoZw2YhyJUzTZHR8nqeefYcTp4fRNJ29e/dSKBQYHBwkFApdPT1HEAS8Hie7tneze0c31eEAdrtyieJZFqiqRjSe4tjJi7z4ygmisdQlx7kR2O32cvLjWlE6uyKwrdNFlbfYVWitcGokz9BU4boqr90qTNMknU6TyWRuitJJksDWvg723bWRlsYITqf9sonHtCzyeZWJyXlefv0Ux09eJJsrZsp7vV727NlTsnQqV1c4Skq30LpnfXcTTQ1hvB5nsaaJZZHLqYxPznP2/BjnBiZIJrM3/MIFQSAQCBCJRJYtNFThw00mk2F8fPymhZzZFJnWlmp6e1rpaK3B7/Ngs8lggarpJJIZhkamOXFqmOGRGfKFS9s0+/1+amtrSafT11a4BSRRxO124Pe58Hld2O0Kmm6QTGVJJrOkM7myG+FGI4oiVVVVVFVdoSdShQ81mqYxNDR00xSO0j3ocTsIBT1UhwN4PA4sIJ3OMzefYD6WIp3OX/McVqxwCwgCpf7exXeaNzG0SZIkampqqKutxjCKBXsqVFiKJIl4PUWnczabY2RklHji5pTdEwShmDVQWlZapoVxHXvIayagLsdqxBCKokjfpl7+zS//Aj/xY5/FtEzOnbuwdFiFCoTDVfyHf/cHfPxjj3H/fffi9/s4f36ATCku+EZjlgw1pnn95SFv2w2RLEts27qFj33kUbZv20JNdfXSIRUqAGC32djct4ltW7ew9+49fPxjH6G+vm7psNuC21bhQMDtduF0fjg6qVa4MYiiiNfrwWazLX3ptuA2VriFDePSP1aocHWE2/imub0VrkKFO4yKwlWosIpUFK5ChVXkAymcKBYT7BRFKctaCbuqUOFW8IEULhAIsHnzZnbt2sWuXbvYtm0bbvd7Wa83CqFkeaqtrSmLb0m9xJViGAaappX7Py/+94JvRdf1cnWqxWMW+ksvPYZpmlc8xpXes/TfC+9ZOIZlWZcdY+Hfi4+x8J4Fv+jic6dUgUzX9WXPY+m5Lv33QgD64vdQil+83nO/0vUuPteVYpomgiAQiYSpra0hEikWurpZOBwOfD4ffr8fv99frsL1fnhfju8F2tvbeeSRR9i8eTPr1q2jtbWV/v5+ksnk0qHXjSRJ7Ni+jXsP3IPb5SISCbN9+1YO3rufg/fuRxCgv78f07Ku68uem5sjkUigaRp2u51UKkU0GiWXyyFJEoZhMD8/TyqVKsdtxmIxEokEuq5jt9tJJpPEYjFyuVwpOz7P7Ows+XweSZLQdZ1oNFouqCuKYvkY+Xwel8tV/txCoYCiKKiqWn6PWKp/ODc3RzKZxDRN7HY78/PzJBKJYiKjJJHL5YjFYqTTaWRZxjAMotEoyWQSSZJQFIWZmRlSqRS6rqMoCqlUilgsVv7cfD7P/Pw8mUymfP0LxzAMA5vNVu4oqmkaDofjknOXZRlVVZmfnyedTkMpGmN+fp5kMommaeXPjceLZfdsNhvZbJZoNEoqlcJms11XR55MJoPX4+E3f/NX+Mhjj3DP3rtobKgv/16zs3N855+/z/jExNK3vi+2bt3K/v372bRpExs3bqSmpoazZ88uHbYiPtAMp5TaNAUCAQKBAD6fD0m6egrD+0GSJJqbGrlrz66ytLYUm0xY1+npz+VyZDIZ8vli3JuqqmQyGXK5XPkpnc1myxm6hmGQz+fJZrPk88U8qEKhUH7PwtM+k8mQzWaveYxstlg0dPHnLjz9F96zMDMsnGuhUMA0TfL5/CXnqqpq+ZhLP1fTNCzLuur1Lv7chWMsfO7C9S7+3IXrX3q9i89DVVVM07ziuefz+cuuV19SbPZa6LqOKIls29LHXXt2sW3r5pty3y3Q0NBAX18f27ZtY9u2bcuWtV8pH2iGq62tZePGjbhKLWQ1TeOtt94iHv/gVZcXz3BOhwNhUZdUQRA4dvwEr79x6LpnOMMwOLB/X3kmMgyDbVu30NzcSDyRQJJkWltb6NvUS6akHNWRCDt3bieZSiFJMrIksWvndhx2ezmOrqO9jc7OdnL5Apqm0dbazPbt20iVZjm328Vjjz7MzMwsimJDliU29/URrqoinc4gyxKdHe20trRQKBTb1vp8XvbefVe5j4Gu63z0sUeQFZlMJovD4WDTpo1UV0fIZnOIokhbawtdXR3kC2ppjy1xYP89RYU0DGRJYuvWLYSqguTzBSzLZHNfHy3NzWRzxbr4zc2N7L17D0NDw3g8HtxuF1u29CHLcnHpapr0bdpIbU0NaqFYIHb9um42b97E3Nw8sizj93l54IH7SJRiGl0uJ9u2bsHpdJIvFJBlid7eHsJVVaiahizLS3+qK5LP5/F6PfzYZz+N3+e77Pe/0TPchg0baG1txWazIQgCyWSSV199demwFfGBZri1SE1NNb/2K7/MvrvvQiz1U/gXP/fT/OiPfBqn01VUjEce4hf/1c/R1Fisrblr53Z+6zd+laamRgDq6uv4l//iZ7n3wD0oioLb7eLxxz/KT/7EjxKJhAF4+KEH+c1f//+UQ4x6N/bw//2d36SvbxOCIFAdifClL3yOTzzxMQRBwOl08sTHP8aP/9iPEA4XsyK2b9/KL/3iv2TD+nUIgkAoGODf/dG/5ZGHHgKgujrCF3/qJ/n0J5/A5XLicjp55OEH+dIXf4qa6uK+pq21ld/57d9g06be4vXX1vDln/kCjz78EC6XC7fbw4//2Gf48k9/gWCwWNrwgfvu4/ef/F0kSUIURdav6+bLP/0F9uzeWSwY7PfzEz/+ozzx+MfweIv7mc9+5pP861/8l/j9xVXOjh3b+e3f/FV6N/YA0NLczC/8y5/j4IH9UEpZ+ckf+yxPPP4xfL73tx9fi3zoFM6myNRUR/B6PQilSPPa2hq8Pi+yLCPLMj6fl1AohNPpgFIn0Pq6unK4kN1moyoUKvaQK1lqAz4fwWAAW2kvEgj4qampKe9NfD4ffp+PgL9YLNRmUwgGg4RCxZtcFCUCwQDBQABFlhGgOD7gx+0utgKTFYW62lqCgWJHG5uiUBUK4vd6UWQZqdT5pypUhbLoXOvranGVQuRsNoWqqhBerwdZlrApMj6vl0i4CkUpzjJ+v4+62pryXtLlchEMBvF6iy2ZFEUhGAgQCPjLS7lwOExVMFi2VPtLRoYF45bNZiMSieD1FRVUkWWCwSABvx9FWvnstta5osK5XC48Hs9VpaCq9J89y7Fjxzh27BinT58GwOP1Xja2LF4vbrf7upYQFSrcShZbYRfk/XJFhbPZbIQjESLV1VcUXdc5fPgwr776Kq+++iqH3noLSZaJXOV9NdXV5YJFS9feq831mVuu/IaV2W0uHbTwnvJ7r3IQy7qGcUgo/+c9Fo5/6V+vzpLBl33mtc7jqliAVf6I93uUG4miKASCQUJVVVeV8fFxXn75ZZ774Q957oc/5PCRI5eNWSrhcBifz3dZhYIrGk1kWSYcDuN0OLDbbMuKIsuIS4wZNkW5bNxicTgcKIpCOp0mny9W+lqOpUaTpRw7dpxnn3uBmZkZksnkspLL5Wior2Prlj6amhqojkTYtXM799yzl0JBJZPNsmXzJg7eux+H3U4ylaKluZm9e/fQ0txcbGri93H3XXvo7e0hkUggCCK7dm3nrj27EASRfC5PV1c7B+7ZSyQSIZlMUlNdzcF799PW1srszCw+n4+79uxk+7atJFNJRAQ29W5k7917cDkcJBIJOjvb2b9/LzU11aRSacKRKvbtvYvejRtIpdPIkszOHdu4/74DJBJJctksvb0buOuuPfh8XlLpNC3Njdx9125amhtJpVPY7Xbu2XcXu3ftJJ5IYFkWO7Zv5a49u5BkmUKhQEd7G/v37yNcVcV8LEZ1JMzBA/fQ1dXFxOQk4aoQu3ftZMvmPiyr+KTf2LOOe/bdjcftJpVK09rSxAP3HaS2toaZ2VkikSr27t1DX+9GYrE4sqKwbesW9uzaBRZksll6N25g39678Ad8ZHM5fF4v69Z3Ewz4GRsfZ2Ji8rLfc0EymQxVoRA/9qOfuawHOddhNJFKDWxCoVDJOOReVlRNIxqNMjc3x9zcHKlU6rIxSyUQDCJKEqlU6hI/4xUzvt1uN21tbTd86SeKIoZhMDo6SiwWu+IT02az8XM/+9P83u/+FsFAcd+zmP/1l/+b3/m932dy8srl+DweD5/7iR/lX/zclwlHwlimid1uo1jevUA6U7QO+rxeTNMklSr6kdzuYnvYVDqNpmm4nE6cThfpdIp8Po/d7sDtcaOpKulMFkkUcLuLbbrS6XSxSaPbg91uI5VKoaoaDqcDj9tNJpMll8uhKDJut7v8uYIAHo8XQRRIp9OYhoHT6cThcJDJZsnnC9gUhUDATy6fL/reJBmPx41lWeVzd7lcyLJcNMmrKk6nA6/HUzTj53LYbDY8bjearpPNZIufW+pnXvTXGXg8bpxOJ9FYDF3XcTqcOJ0OCoUC2WwOSZbweDxYpkk6ncHCwuf1IklS2X/ndLpwuZzFB2uhgE2x4fG4UVWVdDqDJEt4PR5M0yy6MXQDSRQ503+W3/29P+C1199Y8mu+h2VZ9PX18t1vf53GhkubxliWxenT/fzMz/0r3nr7nUteW4okSUQiEaqri7VXbySKohCLxRgZGUFb1EvvikvKNUFpiXMlEQRwOp2EQkGqI2FqaqoJBAJIkoTb7aKmOkJVKISiKNjtdsLhKsLhKpxOJ7IsEwwEqI5E8Hg8xQYN/qIhJBDwo8gyLpeL6kiYqqoqHA4HNpuNUChEdSSCy+VEkiQCgQDV1RF8JQOL1+uhujpCMBjEVprxI5Ew4XAYh8NeNshESp9bNLH7qKmOEAwGikYMp5PqSIRQqHiMxefucjlLBpkAtTXV+EvLGq/XS011ddEooyi4nE7C4WKdGHvJ8RwKhaiujpSX+1WhEDXV1fh8xWppHk/x3KtCofJqJRyuIlIqsyjLMqHyuRcfQD6fj+pIhEDAj7zwnZWOsXD9VVVV1NZUEw5Xlc6v5H64gtxoFq/QbrQsZW0rXIUKa4zbVuGEUiLhlZIJZVnB7Xbj9S5jCV0Qt7vsrKywNhClom/0st9ykXg9HtxOF6Jwhdv3Nv65b9s9nMNu59/88i/yu//Hb1xSFXqB8fEJzl+4QKFwNcOLTFNjI62tLcseo8LtRyqVpv9sP9Ho1RvBeDw+tm/bgmMZg9qZ/rP89Jf/JYfeenvpS5ewsIerqSk2Hr2RLOzhhoeHL9nD3b4K53Dwa7/6y/zOb/8G8k2Mk6tw59F/9hw//eV/wZuHbj+Fu8KcXMRa1O+6QoU7lZtljFmOqyqcYRgUVPUDedbfPxaWuXpfRIU7iOu8ZwzDQFWLAeM3m6sqnCAIxXg6UbzMNPtBZCVYFhQKBVT10jrtFSpci+utBm6UEnlXYyV3RYVTFAXdMMCyMHSdQqFww2QhV+vqWBTUApr63vq3QoVrYVkLK6Olr1wZSZLKtgpzoaLyDZDl7vErKpxhGNjtdjb19bF5yxY2b9lCc0sLuXyeqenpFUk6k6GhsbH8/k19fdjsdmZmZ8leowy1ZZVkeZtOhQofGFmWkSQJrVTmQVVVCoUCuXz+umXxhJIvFMjlcssuU68YS2kYBh0dHTz04IO0trbS3NSEoiicPXuW6enpy2atpaKqKh63m7379rFt61aam5qor69nbGyMgQsXKFyjMce1YikrVLgSK42lpLRt2rdvH9u3b6e7u5u2tjZUVeXixYvlEhBXk1wuR21tLQcOHGDDhg10d3cTCoUYuniR6enpSyyUXG2GsywLURCw2WxlWch1skxzRUIp76l8DEVBFITLtL5ChVuBYRgUCgXq6uro7u6mu7ub9vZ2/H5/sWxEJnNNyedyOOx22tvby8dobGwEyyqXpFjMFRWuQoUKN56KwlWosIpUFK5ChVXkqgoXjUY5fvx4uYTChQsXyGQyS4ddkXw+z+DgYPn9J06cYHZ2FnMV/B0VKqwEy7JQVZVcLkculyOfz6OXitWuBKtU9Hbh/QvHuNI9fsVYygWWxpit9EQW836Oca0E1AoVlsO6jgRUStbwzs7Ocua4YRjMzs4yNTV1mYVxOURRJBQK0dTUVPblZTIZRkZGyoVxF3NNhbtVVBSuwvvhehVutbnqkpLS7ORyuYpl0KqqcLmK5QdWIi6Xi1AoRDgcxvMB6rFXqHCncEXH9wJ2u529e/fyuc99jh07diCKIqqq4vP5riqBQIDe3l4++clPcvDgQex2O/39/UsPf0Uqju8K75frcXyvNtec4WRZpqOjgwMHDnDvvfeybt06qqqKtTCuJuFwmO7ubg4cOMC+fftoaWlZeugKFT50XFPhFiOXesEtrbW3HIIgYLfbsd2mzc0rVLgVXFtzlmCz2crlra/FQkhXhQoVilyXwgmCgCzLK5rhKO3DVqqcy2LdrjbUCrczt3OGyco0ZxHWdST3maaJUeqief1YpDNpsrmrp/FUqLAY0zRLxXdvz8Tla/rh3G43P/ETP8EXv/hFTNPkW9/6Fi+99NIVPekLyLLMnj17+NSnPoUkSXz961/nv/23/7Z02BVZaJP0Mz/9BfbeveeGVd1SFIVIJEIqmSKVLnY5jUQiGLpBNFasFOXz+XA4HESj0WKakceD3+9ndnYWVVWxKQqhUBW5XJZkKoUgCAQCAURBJJGIo+k6AX+x683s3ByqquJyughVhYhGo2SzWRRFIRgIohvFbqmiKBLw+xFFiXgijq7rpTKAXhLxBLl8DlmSqauvI5VMEU/EUWSFQDCAYRjlnnw+nw+bzUYsFkMrdXkNh8PEYrHi58rFgq8FtUAymUQQIBgMIQgC0WgUwzDw+/z4fF7GxsaxsHA6nHh9XrLZbKnis0QwGMIwDBLJBIZhlDr2KMzOzmKUKk/7A35i0RjZXBa73U4wECSbzZJMFTu0BgNBTMskkSge44NiWRaxWIxvfus7/M3f/QPRaGzpkFvONRXO5XLxxBNP8KlPfQpVVXn66ad59913lw67DEmS6Onp4ZFHHsHpdPLUU0/xta99bemwq1LsbxAiEAgirXAZey1qamr40he/yKuvvcZrr72G3WHnS1/4EvFEnG99+9sIwL333ktnZyff/OY3GR0dZffu3Tz04IP8xf/6S0ZHR6ivr+dTn/oUp06e4pVXX8Fms/HQQw/h83r5/lNPMTs7yyOPPsr2bVv5X//rLxkbG2fTpl4+85lP841vfIPjx08QiUR4/OMfJxqN8c1vfROH08mjjzyC2+3m6aefZnZ2jp07t3PPPffw9FNPc+ZsP8FAkN/8zd/gxRde4vtPfZ/q6mo+9tGPkkqn+d73vodpWdx77700NjTwne98h+npadrb2/jc5z7Ht771bY4fP05tbS1PPP44I2NjvPTiiwiCwBNPPIHL5eLr//iPxKJRHnrwIQ7ce4Df+73fwzQt1q3r5sD+/Rw7fpxDb72F1+vl8Y9/nEwmzQ9+8CypVIof/dEfpaG+nj//2tdIJpNs376dhx9+mG9969ucPHmC1tZWHn/845w4cYLnn3+BQCDAxz/+MTLpLM8+9yzJG9CmGkBVVWZn50gkkyteia0m16yBl8/n+d73vsfLL7+MZVnXbMKxgCAIDA0N8dJLL5Vr7l8vuq4zNTXD1NTM0pfeN4lkivlojOGRUU6f6cfpdDI7N8fc/Dz9/cW+zV3d6wgEgpy/MMDAwAA1tXVEY3HOX7jAwMAAmUyWubl5RsfGOH2mH4fDQW/vJrKBHGfPnWdycpLeTX20trZx7vwFhoaGcHs8xOJJhoaGOXX6DPX1CaZnZpmdneXU6TO43W42923G5/Nx9tx5pqamCEcibNgQZWBwiFOnzhCJREgkUoyNj3Pq9Bni8eIx4okEZ/rPYlkWXZ1dKIqNs+fOMz4+jmFaxGIJhi4WPzeZTDEzO8f4+ARn+s8iCAJ7pqbxeL2cPXuO2dlZNvRsJJFIcvpMP6ZpIisKGzb0cHF4hNOnzxAIBJieLjZR6T97jng8ztTUNHa7g7NnzxGLxwlVhYnHEwwNDXHq9Bk03WB2LsrIaPHcq6qq2DU9Wz5GLLZ6s1FTUzPOUtfem83M9BSJUiMVVrKHM83ilD82Nsb4+DiJROKy7O7lJJ/Pk0wmmZiYYGxs7Ia0Ia5Q4UbwpZ/9Of7wK/+RP/oP/+mmy649d11S2/WaCme329m/fz+/9Vu/xa/8yq9w4MABmpubrymtra3s3buXf/2v/zW//uu/zn333bf00BUq3BJ6N/Vx97597N13zwpl3zKydMzyUltXh7BoO3RNhZNlme7ubj7ykY/w0Y9+lE2bNhEOF7u9XE0ikQgbN27k0Ucf5aMf/Si9vcUe07cjy631L//L5axkzBW5wmde/tdbx3LfywIrPddLxlzleKuJKIpll9XyIiKLJgpRXNrr+DL/L8HkvyOY+LcEUv8Fb+7rOIzzyKKKJAnLvP89WaxsrEThWHSCC62RxFLv56uJKIo4HA5cLhdSqTn77YCqqszMzJBOp7FKlaVn5+ZIJhLoul60vCUSROfny4WOspkMk4vSNVRNKzfmM0vtaOPxOLFSPzWAZDLJzPR02TydSaeZn5sjVdrLarrOfDRa3rsYhkGidIyFMoLpdLpo1czlANA1jampKeKJRPkY0WiUxKJzTyaTzM/Pl89DVVUmJifJlY6hahrz8/OkSn3cdF0nnkhc8p5kMsnk1FS51Fs+l2M+GiWTToNloWkasVjsEuvi/Pw8c/PzqIvOfW5ujmwpf1JVVWZL39nC9caiUeLxokX29sBCsPLI6nncya8SnP0Z/PO/ijv15ziy38OR+wHOzDfxJP4bwdmfxh/9Nez5lxDNGHB1q/0C17RSLnULfPe73+WFF1645pckyzL33HMPn/zkJ7Es67rdAjcLWZYJBYOk0mlyudx7Jn1RZH5+Hha5Bebn5zEMA5fLhdvtJh6Po2kakiQRCoXIZrPlhFy/v9hgPh6PY5omHo8Hl8tVViBZlmlsbGR0dBTDMJBKveNUVSVVci14Sv3gFpoaKopCJBxmdm6u/LnV1dXlLqCSJOH3+8vm8IVzl2W5rAw2mw2/308qVWwmKYoiwWAQXddJlBQ3HA5jmmb53BfcEVNTU1CKGPL7/aRL35koigQCAXRdLzaPNE28Xi8ul4uZmRksy8Jms1FbW8vExAS6rmOz2fD5fORyOTKZDKJY7LdnmibJVbYofuM73+PuvfuWTAIWohHFXngNR+Y7yFo/gnXtfDhL9FFw3kvO9VF0ZQOWcGlk1a//6r/hb//3X6GWHt7XNe0IgoCiKEgrjB6RZfmSDePtgK7rzMzOlp/4CzfrgrKxMDvNzJSf3tlsltnZ2fIMZ5SSFBdnvycSCaLRaNk/mU6nmZmZKb9H13UuXrxYPqZhGMWZpvTEtyyLVCpFLBYrj9E0jYnJyUs+d3Jy8v/f3nnHV1Vli/97bm+5N703kkACSYhUKdJRUEBRUcCKZWZ05umogzo69aej783M830sT53yBqwMlkFBRRSB0Akt9CAhQELqTW/33txy9u8P7j2m0mVE7/fzWX8kZ5999jnnrrP3XnvttZTr+nw+Gjr1kvjbHlhPQzGT1yqWZVmWqa+vV5QNoK6urkvb29vbFWXrXEfgmcmyTENDAy0tLco5ra2t1NTUKIrjdrspKyvr0tPW1dUpbZdlWeklL6Wy9Y6M2leLwfExppZ/oHXvPytlA5DkFvSOVVha/oauowBJnHpGfXFOCscZxvXdkf0RaIME+e4iUMnNGNpXYGr7ELXvmw/N2SIJN1r3Xkytb6HrKEQSfXu5nJPCybKMy+U6q63n+L9ql9LFRvJvlg0JCelTAhtju/8/IGazGY0/Na7NZutxPFBGq9EQYjERZrMQZjP3EJvVpOTx7n5+53p0Wi3WEFOP8wNiDTGiVp/Ta+qBJJ3KQR4wZvUmBoMB6SKnbLosEF50HQUYHctRyafPSXdahAeNpwi94zPU3pN9ztTOOIczmUzccMMNzJs3D7fbzcqVK9mx4/R5t/B7muTk5HDddddhsVhYuXIlf/3rX7sXu6jo9XpGjhxJXl5en8PeVatWERsbS25ubq9lmpub2bx5M3FxcYwcObLXj0tbWxtbtmxmQHoSAwYMgF5+qC5XO198uZ70jEzS09N7vVZDQwPbtm1icHZ/0tIHdD8MQGNDPV+uXsPJCvt5G/m0Wi3jxo1jxMiRaPsY4n/55ZcUFhb2er/fN76Zw0movRWENP0Xuo6dZ1KFs0JWheMIuQOn6XqEKqTHHO6MCqdWq0lISCAlJQWfz0dlZeUZs1Pi/6parVbi4+PR6/VUV1dz5MiR7sUuKhaLhfnz53PnnXf2mhkT4OmnnyYtLY0777yzV//MkydP8tprr5GRkcH999/f6xC6pqaG119/jVEjsrlm+o2o1NruRWhvtfPMs//F6DHjmT59eq/tOXbsGK+/+iLTr5nIlGk3dT8MwMmyo/zxv55lx67DvbblbDAYDNx7333MmzsPg6HnPQO8/PLLLFu27Iw5H74PKAonCQzOlVhaXkPlO/Nv+qyQ1Lj1I2iz/gyvtj9PLHzs3IwmPp+PsrIyNm7cyJYtWzhx4gQtLS1nlObmZk6ePElBQQEbNmz41pUN//yyvb0du91OfX09TU1NNDU1UV9fj91up7q6WrGS2e12xaQeMJrY7XbFONDe3k5tbS0NftN15zJ2ux2nw4HL2YSj5SSu9io6HLV0OGpwtlXgaCmjtakMT4eD1tZWpZ7Aterq6rDb7dTV1dHh7sDlbMTRUoarvZoOh52O9hqcrRU4WkppbynH4z59HoazQZYFGp0WnV6PVqdHq9Oh0+vR6Q3oDcZT62rnqdCXKyrRita9D5XvGwPSBSN8qL0VaDzHe53LnbGHu5zQ6XRkZ2eTk5ODxWJBp9MhyzIejwe3243H42HDhg2Eh4crZfR6PT6fTylTX1/Prl27iI6OZujQoej8ORU619PU1MSewp2MztMzelgcBoMFlUaPkL34vB34vC4am1p5+6NSwqKz6N+/v9Iej8ej1FNXV8eBfTsYN8zG6OGxaHUWVCotQvbi9XYg+1xUVDXx7vISTpQ7zntIqdfruWXuPH7x+JOEhtoQ8qmKJFVg3VTFkwsf46Nl/zpjkpXvA4EeTiefIKTpv9B27O1e5IIQKisO81wclrk8/sRvz21IeTkRWKdKSEhAo9EoRgDRKRlkcXExBoNBKaPqlmzS6XRy8uRJTCYTiYmJXdZqAmVcLheVFaUMz2xlRLYKrUblHywE9grKtLTJ/GuthE8dT0xMjNKeztdyOBxUVZQwcmAHowarkCS18kqEECBkqhtkPl4nU1V7/tsqdTod18++id898weioqM7vfJv5p4//9kDfPSvDy+pkevfRUDh9N59WBufRe0t717kghCSFpdpJu3WB1j4xP87tyHl5YQQAtnv+RHoRQI9W8ATQ/i9SwK9WiC1VvcygXoCdfRaxudD9nn8vZoTn9eF7OtA9nkQsg9B13p6u5bcpR5X13rkU/VcjG/iqQ/Bqbm1JKn88o1n0A8RSbiR5NOvm50PkvCeqlf03OP3vVK4IEHOmW/tYyN1GUEECCpckB8sQjIgJHP3f18wQtIiVGaQeqpXz/8ECfIDQVaF4lPHdP/3BSMkMz51NIKey0VBhQvyg0VWR+DTpvoDkF8sJGRVOD5teg9HZoIKF+SHjJCMeHR5+NSR3Q+dN0LS4dVl4tWkghTs4YIE6YQKt34oXn3eRevlZFU4bv0IZHVU90MQVLggP3RklQ2naTZeTb8LVgchmegwjMetG4aQenehu7ArfMeQJAmdTofZbMZqtWKz2bDZbFitVsxmMwaDAbVajV6vx2QyKVl+QkNDlTKBHe1arfaM9Wh1BnQGG3pjOAZTFAZTFDpjOFq9FbXWiEpS9XqtEP9mTb1ej0atRqc3otPb0Bsj/PVEojOGodVb0WiMSL1Yu86VwAL/qTVILz6vF5/Piyz7fuBbqNR4dNk4LHPxaVLOu6cTkoUOwxhcpmuRNb33bnzfPE30ej1XXnklo0ePxmazodWeGkO73W5cLhdOp5MVK1YQFxfH6NGjCQkJUXIfuP1pZ6urq8nPzyc+Pp6JEyfSOSFJoExtbS0bN+QzZmg448cMRG8IQa3RIQT4vE687nYaGmr5vyWFJKbmkZeXR4h/axD+0IMul4vKykq2bFrL5LGJXDUqC63W7yImZH89bZSdrGbx0gKOnmi6INeu+bffwUMPP0yIJeSUp4v/A6VSqVCp1PzqqV/y0bIPf1CuXZ29iCS5Db1rHcb25Wg8xUjizKEgT6FCVkfQoR+F03IzXk1/kL7ZkdF9t8AZ88NdThgMBq666ipmzZpFRkYGycnJJCUlkZycTL9+/cjIyGDXrl2kpaX1WSYsLIzi4mIyMjK46aabSE1N7VEmKiqKoyUlZGfnMXz0jYTH5GKNzMIWmYktaiBh0TmEhPVjx64irhgynClTpvS4Vlpa2qkYlF8XMXTYKIaNnkNoVDbWyMxO9eSi0sewe/deqqrPP26jVqtjxMiRDBqYhfB58bg7cLs78HS4cLtcuF1OCrZt5fDhw2cMnfF9YO7820lKTu7qYSPp8GkS8WkSAFDJraiE47T9kZD0eLUDcJln0mG+Hq+2XxdlA1j95Rcc2LdP2YF/4WOV7xCSJGEwGJTNnUajEaPRqGwCDQ0NRafT9VnG6k8mGQiW1FcZm82GXq9HqzOhN4WiM1jR6S3o9Bb0BisGUzhGcyRarQ6j0dijHovFgtVqPdXraTTodGb0xjB0hpBO9dgwmMIxmMJQa3pau84JCdSqrl4P3/wlEEL+Qbt4BRCSGbduBI6Q+2i3/RSn6Xq82v6nFrH9T0ygRlZH4NaPxBFyB222h3CabsarST6r4ej3akip1WoZMGAAaWlpvW74BNixYwdhYWGkpaX1Gkmsvb2dgwcPEhYWRmZmZq/zG6fTyaFDh0iMjyQ+PrHXH6rH42Ln7n3ExSUSFxfXa3taW1spOnSA1JQE4uMTux8GoLW1hd2Fe6irP/8hpUajYVB2NpkDBvTaDoDdu3dTUlKifIm/z/Q2pOyOJHxIogmVtxqV3IQk2pGEDyHpkVUhyOooZHU0Qjp9BOfuQ8rvlcLh3zFwugfp8/lQ+cP89UbAsBCoJ+D0272MLMuoVarevHdOIcDrk894rTPVI4TA6z0Vru5C0Gg0qNXqPtvi8Xh+EMoG8NdFbzB8+IhzMEad2gEiCYGQVOc0MPzPP/w/Pv5oGR7/LozvncIFCXImxk+YRFRUVG++xRedPbt3cfzECWT/xyyocEF+cGi1OlTd5rTfFoFtWAGCChckyCXk7AejQYIEuWCCChckyCUkqHBBglxCggoXJMglJKhwQYJcQoIKFyTIJSSocEGCXEKCChckyCXke6Fwkj9NldVq7dM59/tC53v9riW7vBhIkoTRaCQsLOx7+S4viqeJ0WjskolG+JNqXKq9VWazmRkzZmAymfjkk0+6ZDO92EiShF6vR6/X93qPKn9uc7VajcPhuOgOwRaLheuuuw6j0ciqVatobW1VNsj2hc/nw+l09mjrpUClUik5Hs4mjLpOp+Pqq68mKyuLRYsWdcnu+n3gghVOrVYzd+7cHimZ6uvryc/PZ/Xq1WeV3upCiIyM5LnnnsNkMvHrX/+a0tLS7kUuGjqdjtmzZzNr1iyWLl3Kl19+2SWnWlhYGDfffDP9+vXjb3/720VvS1RUFH/4wx8wGAy89tprDBkyhIkTJ/a5Q0IIwYkTJ/jHP/5x2gxGarWK6KgwUpNjSE2O43hpNdt2HOxe7JwZOHAgt99+O0ePHuXjjz+mqampe5EumM1mfvWrXzFhwgRuvfVWKioquhe5rOn9LZ0DkiSRm5vLtGnTGDRoEImJifTr14+bbrqJZ599lp/+9KdERl68MGR9odVq0Wq1fW4/uVio1Wqys7OZN28ejz76KAkJp3YIBzAYDAwZMoRJkyZhs9m6HLtYBO5Vq9USHR1Neno6GRkZDBw4kEmTJnHttdeSk5NDRkYGGRkZJCYm9pqfrjMP3Hs9i19/kpf+9DC/fuJORo/M7l7kvMjIyOCOO+7g6quvJjQ0tPvhHkj+PPI6ne5bf5f/Di5Y4QKcPHmSZ555hltuuYXZs2dz6623UlxczE033cTgwYP7/AJfzgwZMoR7772318SOlwK73c7LL7/MDTfcwKxZs7j77rv5/PPP2bdvH//xH//BrFmzmDVrFo888giHDx/ufjoAFouRfqlxDM5JZ1BWKilJMURG2EhOiiYzI4mMtATCw0K6n3bWHDp0iFdffZWPP/74Wx3qXy5cNC3wer00NDRQVVVFRUUF27dvZ+XKlej1ejIzM5UAOiqVitDQUBITE4mIiOiiiCqVCovFgslkQqPREBkZSVxcHCaTqcfXTpIkwsLCSElJISoqqtcJtkqlwmq1kpCQQGRkZI8yer2eiIgIJEkiJCSE+Ph4bDabsmk0LCyM+Ph4QkJCulxfCEF1dTV2u505c+YwadKkHu3rDYPBQFJSEjExMcrzwN9Os9mshGGIjY3t0t5AW5KTk7vcq8/no6mpicrKSioqKqiurqatrY2Ojg7sdjsVFRVKxlqdTofJ9M3u5MA1x47K47nf3M/k8UPQ675p002zxvGXFx/jv597kInjrkDy5wlPTEwkNja2x0dGq9UqoSdsNhuJiYmYzWZKS0tZtGgRX331VZfsqjqdjpiYGBITE3t9v50JGFLi4uKUjLqnI9DWhIQEoqKiujxr/PceGRlJUlISNputy7VVKhUmkwmz2YxWqyUqKoqEhASMRiOSJKHRaIiNjSUxMfGM7eiNb83MJcsyHR0d+Hw+JH+8jPT0dGbOnMmQIUMICwvD7XazevVq3nnnHZxOJzk5Odx11100NjZiNBoZMGAAWq2WvXv38u6771JcXIwkSURGRjJz5kwmTJhAeHg4QggGDBjA3r2nEusFfqDXXXcdkyZNIjw8HI/Hw86dO3nnnXeoqqpCCMFPfvITRo4cSX5+PmPHjiUsLIyKigq2bt1KfHw8ubm5hISEcOzYMd544w0OHDig3F9tbS3/+te/uOuuu/iP//gPSkpKKC4u7vQEvkGtVjN69GjmzZtHYmIiLpeL7du388EHH1BeXk5ycjK33347QgiMRiNZWVkcPHiQ//3f/0UIwfXXX99liJqRkaHc65lQqVQMHDiQW2+9VfkIyrJMXFwcd999N3nZSWT202O1dk1qYTDoGJiVQlV1PWGhYdxwww1MmzaNuLg4PB4P+/fvZ9myZUrgoRkzZjB58mSKiooYMmQIoaGhLF68mMOHD3PLLbdw8uRJPv30U7xeL6NHj2b69On069cPnU5HTU0Nr776Kvv27evSBvzPbvDgwcyZM4fMzExUKhV2u50vv/ySVatW9UiRbDabGTduHDNnziQxMRG3283u3bt57733KCsrIyMjg7lz5zJo0CCMRiP19fV8+umnrFy5ko6ODhITE5k7dy6RkZF4vV4yMjLQ6/Xs37+fw4cPM3jwYNLT09FqtWzdupU333yTqqqqLm04HReth5P8MSEDgXKSkpK48sorkSSJo0ePYrVaue+++7j//vsJDQ3FbreTlZXFH/7wB4YNG4ban0v8+uuv58c//jFDhw6lvb2dsLAwFixYwIwZM5D8ecMXLFjAwoULCQ0NZfPmzRw9erTLV8pkMnHbbbfx9NNPExMTw9GjR9Hr9Tz88MMsXLiQ8PBwAMaNG8ecOXNYsGABOp0OtVrNjTfeyHPPPcesWbOQZRmdTsf8+fOZOXNmlx7C4/GwZcsW/vnPfyrKZLFYlOMBJEniyiuv5He/+x1Dhw5l27Zt1NXVcfvtt3PXXXdhtVoJDw9n+vTpPPLII8yZM4fk5GTlOd533308/fTTWK1WCgoKOHbsWI+e+kzExcUxZcoU0tLSlP/ZbDYmTpzI4LzBfS4vSJKELCRGjhrL008/TWZmJkVFRTgcDubNm8fPf/5zUlNTkSSJwYMHc/vtt/PEE08wfPhwIiIiAIiIiGD8+PEMGjQInU7HqFGjePrpp5k4cSIOhwO3283111/Pn/70p16nHdHR0dx///1ce+21lJeXc+jQIdLT07nqqqt6zEu1Wi2TJk3i17/+NcOGDaOyshKfz0dubi5Wq5X09HR+85vfcO+9956KJ1NUxIABA3jmmWeYMWMG+I1eU6ZM4c4772TEiBE0NTURExPDgw8+yG9/+1tyc3OpqakhNjaWBx98kIkTJ3Zpw5no/UmfB+Hh4dx4443k5eVhMpkYN24cmZmZLFmyhH379lFbW8vy5ctZtmwZBw8exOPxcNttt/HCCy8wdOhQtm/fDv4APW+//TZ//OMfEUIwYsQIXnrpJeVrmJWVxfz589m6dSvPPPMMFRUVREZGEhERobyAzMxM7rnnHvbu3cvvf/97jh49SkhICK+99hqzZ89mxYoVbNy4EUmSaGxsZMaMGbS3t5Oens6LL76Iz+fjpz/9KZWVleTk5PDHP/6RlJQUzGYzLS0tyj03Nzfz1ltvMXnyZGbPns2OHTu69IIAISEhzJw5k/j4eObOncuhQ4cICwvjqaeeYtq0aSxdulQpe+TIEX7/+9+zefNmPB4PWVlZ/PjHP2bz5s089dRTVFdXEx0dTVhY2BmXAs6Wjg4PzfXN2EKM6HTf/Bzcbg9Nza04OyAndzgtLS089thjHDx4ELPZzCOPPMKMGTMYNWoUJ0+ePKWcsszHH3/Mc889R3NzM7IsM2TIkC7XO3ToEH/6058oKiqiqqoKnU7Hu+++y6xZszAajV3KAiQkJJCamkpBQQEvv/wyZWVlqNVqDAYDra2tXcpGRkYye/ZsAH7xi1+wY8cOhBDo9XpkWebee+9l0qRJ/OY3v+Gf//wnHo+HK664gtdee42f/exnrFy5Evy/wY8++ohnn32Wuro6xo8fz0svvcTy5ct54YUXaGlpYfDgwXz11VckJyej0WjOesml5yflPLHZbEyYMIH58+fz5JNPMmjQIBYvXswrr7xCTU0NQgh27drFiRMn6N+/P+PGjSMpKQnJPz4P9FCBeUkgU2hLSwvNzc2o/NGQhw4diizLbNq0iZqaGn8k4W+iB6tUKhISEujfvz87d+7k2LFjSp2fffYZbrebvLw8ZVwvyzLNzc14vV6cTif19fU4nU4cDgder5f29vY+TdlCCE6ePMn//M//YDablTiWnXvbmJgYBg0aRHV1Nbm5uUyfPp1x48ZhtVrR6/VYrVYkScLpdLJlyxYOHDigrJmNHz8en8/HunXrqK6uRpblLvd6Mdi7/yi/eW4xBbuK8Pm+qXfT1v08+OhLLHpnNVq9hR07dlBeXo7P56OtrY2NGzcihCA9PV3pIe12u7IO2ldQIrvdzvr161GpVAwbNoyxY8cq7797jwXQ0NBAXV0dI0aMYMGCBUyfPp2UlBQ8Hk+PwErR0dHk5OSwbds2iouLlUyz7e3tWCwW0tPTsdvtbNmyRXnGRUVF7Nu3j7i4OAYMGACdpkMdHR14vV7sdrvyd2Ca1NzcrPwuO7/vM3HRFK66uppXX32Vxx9/nE2bNtHU1MTOnTuprKxECKEoy0MPPcRTTz3Fo48+2mOY1hedf2DR0dF0dHRQV1fX6w9PrVYTEnIqunBLS0uXNbLq6mp8Ph+hoaG9PiThz73d/X+y3HfULI/Hw+bNm/n0008ZMWIEU6dO7TK0DHhNxMfHc9ttt/GjH/2IBQsWkJiYqAzPUKJzebvcU2C+Z7fblf9dbOobWthV+DXFJSdxd3pWe/aXsHX7AUpP1qLT6ZWPIP73EVhbNZvNylBQ9qdX7gtJkggPD+emm27iySef5Je//CUPP/wwWVlZvb4PgPLyct5991327dvHjBkzePbZZ3n++eeZPXs2ISFdracGgwGbzUZdXV2PuZ1er8dsNtPY2NhlAV6WZex2OyqVShkGd6e338X5ctEUzuFwcPDgQdasWcPzzz+P0+nktttuY+DAgahUKvr168fPfvYzJk6cyP79+3n99ddZunRpj2HBmfD5w9z1teYmyzJOpxMhhGJpChCwQAaOXyzq6+tZvnw51dXVXHvttQwYMEBpW+BHuG/fPl588UX+8z//k+eff57f//73vPDCC5SXl/fZFq/Xi1qtvmjDx97mSH0RFhrCyGEDGZqXgdvtxmKxdLE0m82njCwdHR19tr87Wq2WqVOnsnDhQmw2mzJE27NnT68fT/zh5fPz83n22Wd56qmnePfdd0lPT+enP/0pWVlZyvORJEn5OGq12h7z3ECYeovF0uV5qvyWcVmWaW9v73LOt8HZv4GzRPYP9958800GDRrEzTffTEREhDKM3LlzJ2+//TYbNmw4Z7cdIQRlZWWYTCYGDRqk9CSBaMj4FbKqqoqqqioGDx6sDFttNhtjxoxBrVZz5MiRXoc754ssy+zfv5+VK1dis9nIzs5WftwtLS1UVVURFRVFfX0927dvV4bWtbW1uFx9x7A/cuQIJpOJ3NxczGazch/nuqAesBQHlhr0ej2xsbGK0gB4vT6E/I3ijBuTy/O/+xHTpw6ltaWR3NxcEhNPBb01mUzk5eWBvwc6Xa/WmZCQEEaNGkVUVBTvvfce77//PgcPHjxtPgOLxUJSUhLNzc2sWbOGv/3tb6xZs4bIyEji4+NJTU3lxhtv5IorrqCtrY2amhoGDhxIUlISKpUKo9FIamqq8tuJiopixIgR6PV6JEkiKSmJgQMHUl9fz4kTJ7pf/qJz0YwmnXG5XCxbtozc3FxmzJjBvn37lDFzdnY2c+fOxWAwMHHiRKxWa/fT+0QIQWFhIXa7nZtuugm9Xk91dTUDBw7kiiuuYMeOHQCUlJTw6aefMnPmTB555BH2799PYmIiN954IwUFBezateusfyRnS0tLC6tXr2b48OHMmTNH+X9tbS0bN27kiSee4Je//CXr169Hq9WSnp7O8ePHeeONN7rU05mtW7dSWVnJnDlzUKvV1NXVMXDgQPLy8hQj05kQQihDrGnTptHY2IhWq2XkyJGkpaVRUFAAQHVNIx1uDybTqXlUWmo8kiRhr2vhWEUV/bNG8PDDD7N161YiIyOZMWMGJ0+eZOfOnV2G7afD6/Xidrsxm81MmTKF1NRU0tLSGDZsWJ+978CBA7n//vtpamqiqKgIgNzcXFpaWqisrGTatGk8+eSTbNq0iYceeoitW7dy66238uijj7J3715CQ0OJj49nyZIlbN++ndLSUn7+858THR1NU1MTo0ePJikpib/85S/U1dURGxvbvQkXlQtO5iFJEv369UOSJDZv3kx1dTXC77zc0NBAXFwckiSxdetWvF4vo0aNYsSIEYSGhrJ//35aW1vZtGmTEl48Li6OwsJC5eGazWZSU1M5fvw4O3bsoLGxkcbGRgYMGMCUKVPIycmhtbWVI0eOcOzYMQoKCqitraWsrAyr1cpVV13FuHHjSElJYcOGDbzyyiscO3YMWZbJycnB7Xbz/vvvg38OkJKSQkNDA5s3b6ajowOj0UhycjI1NTXs3LkTt9tNcnIyarWa9evXK3MZIQStra20trZiNps5fvw4+fn52O12KisrcTqdjBo1imuuuYa8vDw8Hg8FBQUUFRUpC+IlJSXs379f6fXa2tqora0lMzOTKVOmkJmZSUtLC19//TXHjh1jx44dXYbker2epKQkXC4XmzZtUkYQDocDlUrF0KFDmTJlCvHx8VRUVFBeXs6ePXvYvXs3HreHsaNyCQ8/ZcQ5JSCEzK7dB9iz7yijRo1m0qRJZGVlUVRUxOLFi9m9ezdut5vU1FT0ej35+fnU1NQobbJarcTHx3Ps2DEKCwtpbGwkMTGRsWPHkp2dTWtrKyUlJbS0tLBkyRK8Xi8pKSkAfPnll/h8PtLS0hg7diwTJkxgzJgxuFwuFi9ezPr164mLiyMvL4/CwkJWrlxJdXU1JpOJsWPHMnHiRPr160dxcTHbtm2jqKiIyspKMjIyuPrqq7nyyivR6/UsXbqUt99+G4fDgcViISEhgZMnT1JYWKgMpzMyMjhw4AAHDhzA6/ViMBjIzc1l586dHDhwoM8hcXcu2HlZkiRiY2OxWCxUV1d3+QGYTCZF4crLy7HZbPTr1w+9Xk9DQwM1NTWEh4dTX19PXV0dFouFuLg4xTKFXwni4+Pp6OhQDDAmk4nU1FSio6PxeDxUVFQo852qqircbjcqlYqYmBiSk5MxmUw4HA5KS0ux2+3KwwmY+g8dOgT+OUagvYE6A8Mvn8+nWAqjoqKwWq2Ul5fjdDqV+8U/BIqPj0eWZcrLyxXlsdlspKWlERYWhsfjoaamhvLychwOh+JF4XA4qKur69L7Go1G0tLSiIqKoqOjg4qKCmT5VAj1mpqaLsMxrd+3Uq/XU1lZqVw7MBTNyMjAarXS0tJCTU0NWq0Wp9NJTU0NRoOOu2+bzi03TiA2JgK1WoXT1cHRkgre/OcX7Co8Rlx8AlarVUm1VVlZqRggYmJisNlsVFRUdJkLGf2eM06nk7q6OmU+Hxsbi8fjUdbKwsLCOHToELIsExMTg8Vi4cSJE8qxpKQkxRezoaGBkpISZZ02PT1d8XBSq9VER0d3ee9lZWXU1tbi9XrR6XSkpqYSGxuLSqWisbGR48eP09raivA7HsTExOB2uxUreOCD2NLSQm1tLbJ/fTYtLY2GhgZqa2vPeh57wQoX5PuBJElEhFvJy0lnYFYqRr2WypoG9h0o4URpFW3tzvNOJhLkG4IKF0RBArRaDXqDDpUk4fF6cbk8Zz1cCnJmggoXJMglpHfTUJAgQb4VggoXJMglJKhwQYJcQoIKFyTIJSSocEGCXEKCChckyCXkB78sIEkSKv+epoC3+dl6DZwvan9y+3O9niRJihe8z+c76/POhX/H8/ghcdkqXGCfWeftN33R1tZGY2NjlwVcg8FAREQEISEhSpAYp9OJ3W6npaVFkcCuAp1OR3h4OHq9voejrfDvZWtra6O1tbXXnQiB8wPua1arldbWVqqrqxX/0L4cqk0mExEREYqHvM/no6amhrq6OhoaGi7KthKLxUJoaCihoaHExsZiNBppa2ujqqpKua/W1tbTLoLr9Xqio6ORJImmpqYuu+N7Q6VSYbPZlP2Lp9uq1J3o6GgMBgMOh4PGxsZen/l3kctW4UaNGsWdd95JTEwMUi/74jqTn5/Pm2++qfwAwsLCmDx5Mtdeey3JycmEh4ej0+no6OigpaWFhoYGCgsLWbJkibJlIzc3l3vuuYeUlBR0Ol0XpfN6vTQ2NnLw4EEKCgo4ePBgl5BwoaGhXHnllcyaNYu0tDTCw8MxGo24XC7q6uo4cOAAH330EXv37u3imylJEgkJCUyZMoUpU6aQnJxMWFgYsizT1NREWVkZa9euZdWqVV0chs8FrVZLWloaEydOZMyYMcTHxyshHFwuF42NjdTW1lJQUMDKlSs5duxYr0ohSRJjx47lgQceQKPR8MUXX/D222/3+RHBv11n/vz5TJ48GZ/Px9NPP31WgXPDw8N57LHHyMzMZPv27SxatOiyCsEnLkeZN2+eOHbsmPB4PGeUxYsXi8jISAEIk8kkHnzwQVFYWCja29uF1+sV9fX1ory8XNjtduFwOITb7RaHDx8WU6dOVa536623iuPHjwuv1yt8Pp/weDzC7XYLj8cjvF6vcDqdoqqqSmzcuFE8/vjjIiEhQTk3KytLvP/++6K5uVk4nU5RXl4uTpw4IRoaGoTH4xGNjY3igw8+ECNHjhRqtVo5z2w2i+eff14UFxcLp9Mp2traxMmTJ0VNTY1wuVzC6XSKgwcPioceekhYrdYez+hMYjQaxcSJE8U777wjSktLhcvlUtpTVVUl6uvrhdvtFh0dHWL37t3i+uuv79K+zqLVasUbb7yhPL9NmzaJ6OjoHuU6S3JysnjnnXeEw+EQHR0d4plnnumz/oBIkiQWLFggSktLhcfjEatXrxYZGRk9yn1X5VvZD3cpUKvVaDQaNBoNRUVFvPXWW92LKBw4cEDZcp+Wlsb9999Pbm4ujY2NvPTSSxw/fhyn04lOpyMsLIycnBxkWaasrEypQ6/XYzAYUKlU7NmzhyVLliCEQPLHZBkyZAjjx49n1KhRpKam4vF4WLRokbIBtbKykvXr17Nu3Tpqa2vxeDxER0dz9dVXM3PmTKZMmcLXX39NaWmp0ltpNBqysrKIiYlh1apVbNiw4ZRnv9FIXl4es2fPJisri3vuuYfCwkI2bdqktPdMaLVahg0bxi9+8QsmT56MXq9nz549fP7551RUVOB0OtH743YOHjwYq9Wq7FTojby8PCZNmqQEAsrOzubmm2/m9ddf715UITQ0VIkbqdFouOWWW1i1ahVbtmzpXlShf//+3HXXXSQkJKBWq4mJiVGuebnQQwsvB7n99ttFWVmZEEKIFStW9Djelzz22GOisbFR+Hw+8ctf/lKYTKYux1UqlYiJiREpKSlCo9Eo/7/zzjtFVVWV8Pl84t133+1yjkajEWlpaeKxxx4TJSUlQgghioqKxIgRI5QyaWlpol+/fj3Omzp1qjh27Jjwer3iyy+/FDk5OcpxtVotJkyYIB5++GGRlpYmVCqVwP+V79evn/i///s/0d7eLtxut7jjjju61H0mSU5OVs6XZVksXbpUXHXVVcJoNHYpp9FoREJCgsjNzRVms7lHPfjb88Ybb4iOjg5RXV2tPKdNmzYJi8XSo3xAxo4dKwoKCoTX6xVCCOF0OsULL7wgdDpdj7KB6/ziF78QLS0tIkBZWZkYPnx4j7LfVfnBLQsMGjQIg8GA2x8gtHuwGVmWqampobS09LTzj854vV6OHz/O8uXLyc/Px+Fw0L9/f2XPFcCxY8c4fvx4j/NKS0spKipC5Y8T0jlGpM/nY+vWrSxatIjjx48rvYsQArvdTkFBAS0tLWi1Wsxmc484Hn2h1+sZP34848ePx2g0snbtWv77v/+brVu39tjf5/V6qaioYP/+/X0aZ/Ly8hg9ejQqlYovvviC5cuX4/V6yczM5NZbb+1eXMFkMilRrevr69HpdEyaNInRo0f3Oi+/4oormDZtGhaLRTFodY9b813nB6dwTqcT2R9oJiMj46K9LCEE9fX1HD58GKfTiVqtJioq6owBgIxGI5GRkfh8PlpbW3uEK3C73bS1tfUwVKj8aaAC5nuv19ujTF+YzWZGjhxJcnIyjY2NfPDBB+zZs+e8LH1qtZo5c+aQmJhIbW0tK1euZPny5VRWVhIWFsbUqVOVwLvd0el0GAwGJEnirbfeorW1lfT0dCZPntwj9IbZbGb8+PHk5eXhdrtZtmwZLS0tGI3Gi/YOLwU/OIXbsGED7e3tqNVqHnjgAX7yk5+cc1CevlCr1ZhMJqVXc7lcfc55VCoVycnJzJs3Twk1sHHjxrMOmx0aGsqwYcOw2WzU1NQoO5HPhvj4ePr376/M2woKCs66N+9OZmYmo0ePxmAw8PXXX5Ofn09BQQEHDhxApVIxZMgQxo4d2/008M9Rtf7oa2vWrOH999/HbDZz7bXXkpqa2qVsWloaU6dOJSwsjE2bNvHJJ5/gcDjQ+SNmXy58LxQuJyeHl156qYe8+OKLPPDAA8TExChlN23axJo1a+jo6CA7O5vf/e53fPDBByxcuJCUlJQea2xni0qlIi4ujuHDh2OxWOjo6FAConYmIyODt956iw8++IClS5fywAMPoNVqee+993j33XfPKpKZyWRi2rRpTJ48Ga1WyyeffMLWrVu7F+uTlJQUJZJVSUnJeUerkiSJcePGkZ2djSzLfPjhhzQ2NtLa2sqSJUtwu90kJCQwYsSILrE6A6jVakVZjhw5whtvvEFTUxMZGRlcd911SmBYk8nE8OHDycnJwev18o9//IOSkhJ8Pp9iPOttCPpdpcfE7nKQzkYTWZZ7LAUEzPZr164V2dnZynmSJIkBAwaIpUuXitbWViHLspBlWbhcLnHs2DHx3HPPidTU1C4GE7oZTd5//31hs9mEzWYToaGhIiIiQowbN04sX75cOJ1OIcuyWL16tcjMzOzR7gkTJihLC4Frb926VUyYMKFPY0FnUavVYubMmeLAgQPC6/WK/Px8MXTo0C5ljEajCA0N7SEBA8b8+fNFeXm58Hq94uWXX+7TGHImSU5OFosWLRJOp1PU19eLpKQk5VhCQoIoLS0VXq9XbNq0SYwZM6bLuSqVSsydO1dUV1cLWZZFTEyMCAsLE6+88orwer1i27ZtIjY2VgAiNTVVvP/++8LtdovPPvtMpKeni6ysLMVAtWDBgjMuJ3xX5Pw+598xAlGee5PAnCqAEIIjR45w99138+ijj7J69WqOHz+Oz+cjOTmZp556ihUrVnDzzTf3mEfg78mmTJnCmjVrWLduHdu2bePw4cOsXbuWmTNngn8Z4oUXXug142hDQwNr165lw4YN7N+/n8bGRkaOHMlbb73F3Xff3SOacGf0ej2TJk3i2WefJTMzk3379vHKK690yaSj0+lYuHAhW7duZdeuXYrs2LGDv//970pvcKE9gkqlYtCgQYwcORKdTseKFSu6BJBqbm5myZIlqFQqUlJSyMjI6DKf1el0REREoFarleFsS0uLEuksLS2NuXPnotVqGTJkCNnZ2TgcDlasWKFEXXO73QghlBiUlws9tPBykM493Oeffy7CwsJ6FYvFctqvn06nE9dee63485//LDZs2CAaGxuFLMuipKREzJ07VzGTB3o4IYRwu92iublZNDc3i8bGRlFXVycqKyvFnj17xD/+8Q9xzTXXnPaa+BeKBw0aJJ566imxd+9e4fV6xY4dO8Q111wjtFptj/Imk0nccMMNYt++fcLtdot9+/aJn/zkJyIkJKRLOYPBIP785z+Luro60dLSokhzc7NYt26d0Gq1Yvbs2aK4uFjIsixef/3181o0t9ls4oknnhB2u1243W5x4403iujoaBERESEiIiJEVFSUmDp1qmhraxNtbW1i0aJFIiUlRTnfarWKX/3qV6KxsVG0tbWJ6OhoIUmSSE1NFf/85z9FR0eHskzy6quvCofDIb788ksxZMgQAYiMjAyxZ88e4fP5xMsvvyz0en2PNn4X5YLjUv67GDx4MFOnTsVmsykxEl0uVw8JfAX7wufzcfToUTZv3qzEiExPTyc2NhZJktixYwcNDQ3k5eVx9dVXYzabKSoq4s0336SgoIANGzawcuVKPvvsM5YtW8Z7773H/v37z2jAkGWZ2tpaCgsLkSSJ0aNHEx4eTlVVFYWFhV16ZZ1Ox+TJk/ntb39LXl4eR44c4a9//Svvv/9+r4lGDAYDNTU17N69u0tvv2XLFnbu3EloaChjxowhOTmZkydPdolheTZIkkRqair3338/2dmnUhMbDAbGjh3L1VdfzdVXX83UqVMZO3Ys/fv3x2Qy4fP52L59u+IvabFYmDp1KiNGjMDj8fDKK6/Q3t6Oy+XCZrMxatQooqOjiY6OZvjw4ZhMJt577z0+//xz3G43oaGh3HDDDcTHx3P8+HE++eST8zb8XGp6aOHlIOe78H060Wg0YvLkyaKwsFAIIcThw4eVuUf3OVxYWJgIDQ0VISEhPeZ75yrjx48X+/fvV9zQAnMX/HOdoUOHilWrVomOjg5RVlYmHnroIREeHt6jnoCYzWalp+ksgZ4sISFBvP3228Ln84mjR4+KG264QUiS1KOevkSr1Yo5c+aIoqIiZf7c0dEhXC5XD3G73UKWZWG328XTTz+tOBrExsaKv/71r6KtrU1UVVUprneSJImsrCyxdu1a4fF4RGtrq3A4HGLLli1i/PjxysghNTVV5OfnC6/XK1auXNnDgeG7KpfPwPcS4PV6FTcs/HOm3kzOHo+HxsZGmpqaaG1tveAva2BOJXXaGhMgIiKCe+65h/Hjx+NwOHj55ZdZtGiREvG5N9rb26mvr+8hAeft5uZmDh8+TFNTEykpKVxzzTVERUV1r6ZP9Ho9V111FYmJidjtdlasWMGiRYtYvHhxD/nwww8pLS0lPDycoUOHEhYWBv4lAYvFgkql6pIQRAhBRUWF0pNZLBYlSvXRo0eVtUKfz4fL5UIIga1b2uDvMt8LhZP8+8ROJ4EXYjabsVqtyvpPZ1T+7SLR0dHgzwxzPovB3VGpVGg0mh4Te8mfizonJ4fk5GScTqfiZxk4PnjwYG688UY0Gg3vvfceL730Ek6nE5VK1UW638vpcDqdrF+/noMHDyJJEvPmzeP+++8nKiqq1zZqNJou25KSk5PJycnBbDazbt06Fi5cyIMPPtirPProo6xatQpJksjJyWHEiBHQbc0yoDgB2tra+OKLLygrK1M8XdatW9clbZfcKUvS5aRw34s5nNPpxOPxMGTIkF4lkEOgrq6OBQsWcN9995GZmYkQQnFYjomJYcyYMdxzzz2MHTsWjUbDV199xaefftpjDnfgwAGWLVvWvUl9Mnz4cO69917i4uJwuVyEhoYSHh5OWloa8+bN65Iv7u233+bgwYP4fD6MRiP33HMPkydPxuPxsHz5cqxWK/379+8h8fHxNDc3K+HNT4fw584LOEfHxcWRnZ2thKHHnxMgIiKCK664grlz5zJt2jTsdju1tbXMnj2bW2+9FSEEH374IevWreux3hjA5/ORlJTEyJEjiY6OVuaMNpuN66+/nvT0dCorK3nzzTe7tL2jo4Pm5mZqamr44osvWLduXZd5ptlsZvLkyQwaNAiXy8Vf/vIXJez6d50e48zLQTrP4RwOhygtLe1TiouLxY9+9COhUqnEhx9+KBwOh7Db7WLXrl1i/fr1Ij8/X2zcuFEUFRWJtrY24XQ6xbZt28SsWbMU69fpnJfPJPfee68oKysTxcXFYsOGDWLdunUiPz9fbN++XamzuLhYPPXUUyIuLk6ZT4WGhoqvvvpKeL1e4fF4RHFxsTh48GCvsmbNGjFs2LAe1+5LJEkSiYmJ4vHHHxcHDhwQbrdbOBwOUVxcLDZv3izWr18vNmzYIPbu3Stqa2tFWVmZePDBB0VsbKz429/+JjwejygsLBTTp0/v1aoaELVaLcaOHSs2btwoZFkWa9euFbm5uSIjI0OsWbNGeDwesWnTJmGz2bqcp1KphNVqFUlJSSI8PLyH1TcyMlL8/e9/Fy6XS1RVVZ2XpfXfIZdtDxcbG0taWhpOp5OGhoYe1snO0tbWxubNm9m/fz8Wi4W2tjbMZjMpKSmkpaWRkpJCXFwcOp2Oo0ePsmLFCv7+97+zYcMGxVoYGxtL//79aWlpYevWreTn53dvUp9YrVaioqIUl6rU1FRlM2lDQwNr1qzhjTfeUJI6BiycOp1OcQquq6vD4zkVdrw3aWpq4quvvqK6urr75fukra2NI0eOUFZWRkNDAwaDgYSEBFJSUkhOTiY+Ph6DwcDJkydZv349W7ZsQZZlxo8fjxCCNWvW8Omnn/ZqKQ0ghMDj8RAVFYXZbMbtdrNz505qa2vJzc1Fo9Gwbds2Vq9e3aWXFEIoG4IDQ8fOqNVqUlJSiIqKoqKigiVLlvTZy36XkKKiokRtbW33/3/nCSR5NJ1FymKfz0dJSQnl5eWYzWbCw8Pp378/MTExyjxClmUcDgcVFRUcOXKEhoaGLkOUiIgIMjMz0ev1lJeXU1xc3OUapyOQfaV///5ERkYq80e32019fT1ff/21ku2m83KCRqMhOzub8PDwM85R2tvbOXz4MM3Nzd0PnRGDwUBoaChZWVnEx8djNBpRqVT4fD4cDgfV1dWUlJRQW1uLwWAgMzMTg8FAVVUVJ06cOONQTqvVkpycTEJCApIkcfjwYVpaWhgwYADh4eFUV1efc5JMtVpNcnIyKSkpuN1uCgoKzun8fxfSrFmzxKefftrjC3I5cKYfYXc636PUh7eFOE0+587l+yrTF4Fzu18zUE9f9XUvfzr6quNsOdtncj7PobdzevvfuXCh5/9beO+990RWVpayuTEoQQnKtyNqtVqoFy9e/Huv18vhw4d73XcVJEiQC0fl36qkslgs3HHHHcyfP7/XdZggQYJcGGq1mszMTBYuXAhCCOHz+cSJEyfEr371K5GUlHRObj5BCUpQ+haNRiOGDh0qli5dKlpaWgTCjyzLorm5WbzyyisiIyPjtGsrQQlKUE4vkiQJq9Uqpk6dKjZu3ChcLpcQfutTDzZu3CjmzZsnkpOThVarDRpUghKUsxBJkoRarRYhISHiiiuuEL/5zW/EiRMnhCzLim5Jog8rSWNjI5999hn5+fkcOnSI0tJS2tra8Hg8+L6luPZBglxuBPxkdf5Q9v3792fIkCFMmzaN4cOHYzabu5TvU+Hwe8/X1NRQUlJCcXExR44coaqqiubmZtxu9xn3fAUJ8n1F8u/sMBqNREREkJycTFZWFhkZGaSkpGCz2Xo1QP5/eUOCS0g3GPQAAAAASUVORK5CYII=;" parent="1" vertex="1">
          <mxGeometry x="130" y="332.69" width="112.5" height="171.81" as="geometry" />
        </mxCell>
        <mxCell id="D-2691LFuYxoZoFbfcj9-15" value="" style="sketch=0;points=[[0,0,0],[0.25,0,0],[0.5,0,0],[0.75,0,0],[1,0,0],[0,1,0],[0.25,1,0],[0.5,1,0],[0.75,1,0],[1,1,0],[0,0.25,0],[0,0.5,0],[0,0.75,0],[1,0.25,0],[1,0.5,0],[1,0.75,0]];outlineConnect=0;fontColor=#232F3E;fillColor=#7AA116;strokeColor=#ffffff;dashed=0;verticalLabelPosition=bottom;verticalAlign=top;align=center;html=1;fontSize=12;fontStyle=0;aspect=fixed;shape=mxgraph.aws4.resourceIcon;resIcon=mxgraph.aws4.s3;" parent="1" vertex="1">
          <mxGeometry x="590" y="680" width="120" height="120" as="geometry" />
        </mxCell>
        <mxCell id="D-2691LFuYxoZoFbfcj9-28" value="&lt;font style=&quot;font-size: 13px;&quot;&gt;ESP32 sends data (Readings and Images) to IoT Core&lt;/font&gt;" style="text;html=1;align=center;verticalAlign=middle;resizable=0;points=[];autosize=1;strokeColor=none;fillColor=none;" parent="1" vertex="1">
          <mxGeometry x="242.5" y="384.5" width="340" height="30" as="geometry" />
        </mxCell>
        <mxCell id="D-2691LFuYxoZoFbfcj9-29" value="&lt;font style=&quot;font-size: 13px;&quot;&gt;ESP-32&lt;/font&gt;" style="text;html=1;align=center;verticalAlign=middle;resizable=0;points=[];autosize=1;strokeColor=none;fillColor=none;" parent="1" vertex="1">
          <mxGeometry x="145" y="510" width="70" height="30" as="geometry" />
        </mxCell>
        <mxCell id="D-2691LFuYxoZoFbfcj9-30" value="&lt;font style=&quot;font-size: 13px;&quot;&gt;AWS IoT Core&lt;/font&gt;" style="text;html=1;align=center;verticalAlign=middle;resizable=0;points=[];autosize=1;strokeColor=none;fillColor=none;" parent="1" vertex="1">
          <mxGeometry x="595" y="330" width="110" height="30" as="geometry" />
        </mxCell>
        <mxCell id="D-2691LFuYxoZoFbfcj9-31" value="&lt;font style=&quot;font-size: 13px;&quot;&gt;Amazon S3&lt;/font&gt;" style="text;html=1;align=center;verticalAlign=middle;resizable=0;points=[];autosize=1;strokeColor=none;fillColor=none;" parent="1" vertex="1">
          <mxGeometry x="605" y="810" width="90" height="30" as="geometry" />
        </mxCell>
        <mxCell id="D-2691LFuYxoZoFbfcj9-32" value="&lt;font style=&quot;font-size: 13px;&quot;&gt;IoT Core send Images to S3&lt;/font&gt;" style="text;html=1;align=center;verticalAlign=middle;resizable=0;points=[];autosize=1;strokeColor=none;fillColor=none;rotation=90;" parent="1" vertex="1">
          <mxGeometry x="535.5" y="566" width="190" height="30" as="geometry" />
        </mxCell>
        <mxCell id="D-2691LFuYxoZoFbfcj9-33" value="&lt;font style=&quot;font-size: 13px;&quot;&gt;IoT Core send Readings to lambda&lt;/font&gt;" style="text;html=1;align=center;verticalAlign=middle;resizable=0;points=[];autosize=1;strokeColor=none;fillColor=none;" parent="1" vertex="1">
          <mxGeometry x="719.5" y="384.5" width="220" height="30" as="geometry" />
        </mxCell>
        <mxCell id="D-2691LFuYxoZoFbfcj9-34" style="edgeStyle=orthogonalEdgeStyle;rounded=0;orthogonalLoop=1;jettySize=auto;html=1;entryX=0;entryY=0.5;entryDx=0;entryDy=0;entryPerimeter=0;flowAnimation=1;" parent="1" source="D-2691LFuYxoZoFbfcj9-14" target="D-2691LFuYxoZoFbfcj9-4" edge="1">
          <mxGeometry relative="1" as="geometry" />
        </mxCell>
        <mxCell id="D-2691LFuYxoZoFbfcj9-36" style="edgeStyle=orthogonalEdgeStyle;rounded=0;orthogonalLoop=1;jettySize=auto;html=1;entryX=0.5;entryY=0;entryDx=0;entryDy=0;entryPerimeter=0;flowAnimation=1;" parent="1" source="D-2691LFuYxoZoFbfcj9-4" target="D-2691LFuYxoZoFbfcj9-15" edge="1">
          <mxGeometry relative="1" as="geometry" />
        </mxCell>
        <mxCell id="D-2691LFuYxoZoFbfcj9-38" style="edgeStyle=orthogonalEdgeStyle;rounded=0;orthogonalLoop=1;jettySize=auto;html=1;entryX=0;entryY=0.5;entryDx=0;entryDy=0;entryPerimeter=0;flowAnimation=1;" parent="1" source="D-2691LFuYxoZoFbfcj9-4" target="D-2691LFuYxoZoFbfcj9-7" edge="1">
          <mxGeometry relative="1" as="geometry" />
        </mxCell>
        <mxCell id="D-2691LFuYxoZoFbfcj9-43" style="edgeStyle=orthogonalEdgeStyle;rounded=0;orthogonalLoop=1;jettySize=auto;html=1;exitX=1;exitY=0.25;exitDx=0;exitDy=0;exitPerimeter=0;entryX=0;entryY=0.25;entryDx=0;entryDy=0;entryPerimeter=0;flowAnimation=1;" parent="1" source="D-2691LFuYxoZoFbfcj9-7" target="D-2691LFuYxoZoFbfcj9-9" edge="1">
          <mxGeometry relative="1" as="geometry">
            <Array as="points">
              <mxPoint x="1250" y="390" />
            </Array>
          </mxGeometry>
        </mxCell>
        <mxCell id="D-2691LFuYxoZoFbfcj9-44" style="edgeStyle=orthogonalEdgeStyle;rounded=0;orthogonalLoop=1;jettySize=auto;html=1;exitX=0;exitY=0.75;exitDx=0;exitDy=0;exitPerimeter=0;entryX=1;entryY=0.75;entryDx=0;entryDy=0;entryPerimeter=0;flowAnimation=1;" parent="1" source="D-2691LFuYxoZoFbfcj9-9" target="D-2691LFuYxoZoFbfcj9-7" edge="1">
          <mxGeometry relative="1" as="geometry" />
        </mxCell>
        <mxCell id="D-2691LFuYxoZoFbfcj9-45" style="edgeStyle=orthogonalEdgeStyle;rounded=0;orthogonalLoop=1;jettySize=auto;html=1;entryX=0;entryY=0.5;entryDx=0;entryDy=0;entryPerimeter=0;flowAnimation=1;" parent="1" source="D-2691LFuYxoZoFbfcj9-7" target="D-2691LFuYxoZoFbfcj9-11" edge="1">
          <mxGeometry relative="1" as="geometry">
            <Array as="points">
              <mxPoint x="1080" y="390" />
              <mxPoint x="1080" y="220" />
            </Array>
          </mxGeometry>
        </mxCell>
        <mxCell id="D-2691LFuYxoZoFbfcj9-54" value="AWS Cloud" style="points=[[0,0],[0.25,0],[0.5,0],[0.75,0],[1,0],[1,0.25],[1,0.5],[1,0.75],[1,1],[0.75,1],[0.5,1],[0.25,1],[0,1],[0,0.75],[0,0.5],[0,0.25]];outlineConnect=0;gradientColor=none;html=1;whiteSpace=wrap;fontSize=12;fontStyle=0;container=1;pointerEvents=0;collapsible=0;recursiveResize=0;shape=mxgraph.aws4.group;grIcon=mxgraph.aws4.group_aws_cloud_alt;strokeColor=#B3B3B3;fillColor=none;verticalAlign=top;align=left;spacingLeft=30;fontColor=#B3B3B3;dashed=0;" parent="1" vertex="1">
          <mxGeometry x="80" y="110" width="1590" height="880" as="geometry" />
        </mxCell>
        <mxCell id="h6mTjnBUFlngQ0IK8-6t-3" style="edgeStyle=orthogonalEdgeStyle;rounded=0;orthogonalLoop=1;jettySize=auto;html=1;exitX=0.5;exitY=1;exitDx=0;exitDy=0;exitPerimeter=0;flowAnimation=1;" edge="1" parent="D-2691LFuYxoZoFbfcj9-54" source="D-2691LFuYxoZoFbfcj9-17" target="h6mTjnBUFlngQ0IK8-6t-1">
          <mxGeometry relative="1" as="geometry" />
        </mxCell>
        <mxCell id="D-2691LFuYxoZoFbfcj9-17" value="" style="sketch=0;points=[[0,0,0],[0.25,0,0],[0.5,0,0],[0.75,0,0],[1,0,0],[0,1,0],[0.25,1,0],[0.5,1,0],[0.75,1,0],[1,1,0],[0,0.25,0],[0,0.5,0],[0,0.75,0],[1,0.25,0],[1,0.5,0],[1,0.75,0]];outlineConnect=0;fontColor=#232F3E;fillColor=#E7157B;strokeColor=#ffffff;dashed=0;verticalLabelPosition=bottom;verticalAlign=top;align=center;html=1;fontSize=12;fontStyle=0;aspect=fixed;shape=mxgraph.aws4.resourceIcon;resIcon=mxgraph.aws4.api_gateway;" parent="D-2691LFuYxoZoFbfcj9-54" vertex="1">
          <mxGeometry x="1360" y="470" width="120" height="120" as="geometry" />
        </mxCell>
        <mxCell id="D-2691LFuYxoZoFbfcj9-51" value="Amazon API Gateway" style="text;html=1;align=center;verticalAlign=middle;resizable=0;points=[];autosize=1;strokeColor=none;fillColor=none;" parent="D-2691LFuYxoZoFbfcj9-54" vertex="1">
          <mxGeometry x="1350" y="600" width="140" height="30" as="geometry" />
        </mxCell>
        <mxCell id="D-2691LFuYxoZoFbfcj9-52" value="Send Readings to API Gatway to be retrieved on a website" style="text;html=1;align=center;verticalAlign=middle;resizable=0;points=[];autosize=1;strokeColor=none;fillColor=none;rotation=0;" parent="D-2691LFuYxoZoFbfcj9-54" vertex="1">
          <mxGeometry x="1000" y="490" width="340" height="30" as="geometry" />
        </mxCell>
        <mxCell id="D-2691LFuYxoZoFbfcj9-9" value="" style="sketch=0;points=[[0,0,0],[0.25,0,0],[0.5,0,0],[0.75,0,0],[1,0,0],[0,1,0],[0.25,1,0],[0.5,1,0],[0.75,1,0],[1,1,0],[0,0.25,0],[0,0.5,0],[0,0.75,0],[1,0.25,0],[1,0.5,0],[1,0.75,0]];outlineConnect=0;fontColor=#232F3E;fillColor=#C925D1;strokeColor=#ffffff;dashed=0;verticalLabelPosition=bottom;verticalAlign=top;align=center;html=1;fontSize=12;fontStyle=0;aspect=fixed;shape=mxgraph.aws4.resourceIcon;resIcon=mxgraph.aws4.timestream;" parent="D-2691LFuYxoZoFbfcj9-54" vertex="1">
          <mxGeometry x="1360" y="250" width="120" height="120" as="geometry" />
        </mxCell>
        <mxCell id="D-2691LFuYxoZoFbfcj9-11" value="" style="sketch=0;points=[[0,0,0],[0.25,0,0],[0.5,0,0],[0.75,0,0],[1,0,0],[0,1,0],[0.25,1,0],[0.5,1,0],[0.75,1,0],[1,1,0],[0,0.25,0],[0,0.5,0],[0,0.75,0],[1,0.25,0],[1,0.5,0],[1,0.75,0]];outlineConnect=0;fontColor=#232F3E;fillColor=#E7157B;strokeColor=#ffffff;dashed=0;verticalLabelPosition=bottom;verticalAlign=top;align=center;html=1;fontSize=12;fontStyle=0;aspect=fixed;shape=mxgraph.aws4.resourceIcon;resIcon=mxgraph.aws4.sns;" parent="D-2691LFuYxoZoFbfcj9-54" vertex="1">
          <mxGeometry x="1360" y="50" width="120" height="120" as="geometry" />
        </mxCell>
        <mxCell id="D-2691LFuYxoZoFbfcj9-49" value="Amazon Simple Notification Service" style="text;html=1;align=center;verticalAlign=middle;resizable=0;points=[];autosize=1;strokeColor=none;fillColor=none;" parent="D-2691LFuYxoZoFbfcj9-54" vertex="1">
          <mxGeometry x="1315" y="178" width="210" height="30" as="geometry" />
        </mxCell>
        <mxCell id="D-2691LFuYxoZoFbfcj9-50" value="&lt;span style=&quot;font-size: 13px;&quot;&gt;Amazon Timestream&lt;/span&gt;" style="text;html=1;align=center;verticalAlign=middle;resizable=0;points=[];autosize=1;strokeColor=none;fillColor=none;" parent="D-2691LFuYxoZoFbfcj9-54" vertex="1">
          <mxGeometry x="1350" y="380" width="140" height="30" as="geometry" />
        </mxCell>
        <mxCell id="D-2691LFuYxoZoFbfcj9-40" value="&lt;font style=&quot;font-size: 13px;&quot;&gt;AWS Lambda&lt;/font&gt;" style="text;html=1;align=center;verticalAlign=middle;resizable=0;points=[];autosize=1;strokeColor=none;fillColor=none;" parent="D-2691LFuYxoZoFbfcj9-54" vertex="1">
          <mxGeometry x="880" y="380" width="100" height="30" as="geometry" />
        </mxCell>
        <mxCell id="D-2691LFuYxoZoFbfcj9-48" value="&lt;font style=&quot;font-size: 13px;&quot;&gt;Lambda take Readings from Amazon Timestream&lt;/font&gt;" style="text;html=1;align=center;verticalAlign=middle;resizable=0;points=[];autosize=1;strokeColor=none;fillColor=none;" parent="D-2691LFuYxoZoFbfcj9-54" vertex="1">
          <mxGeometry x="1020" y="310" width="310" height="30" as="geometry" />
        </mxCell>
        <mxCell id="D-2691LFuYxoZoFbfcj9-42" value="&lt;font style=&quot;font-size: 13px;&quot;&gt;Store Reading in Amazon Timestream&lt;/font&gt;" style="text;html=1;align=center;verticalAlign=middle;resizable=0;points=[];autosize=1;strokeColor=none;fillColor=none;" parent="D-2691LFuYxoZoFbfcj9-54" vertex="1">
          <mxGeometry x="1055" y="244.5" width="240" height="30" as="geometry" />
        </mxCell>
        <mxCell id="D-2691LFuYxoZoFbfcj9-46" value="&lt;font style=&quot;font-size: 13px;&quot;&gt;Send Alerts to SNS&lt;/font&gt;" style="text;html=1;align=center;verticalAlign=middle;resizable=0;points=[];autosize=1;strokeColor=none;fillColor=none;" parent="D-2691LFuYxoZoFbfcj9-54" vertex="1">
          <mxGeometry x="1110" y="75" width="130" height="30" as="geometry" />
        </mxCell>
        <mxCell id="h6mTjnBUFlngQ0IK8-6t-1" value="" style="sketch=0;pointerEvents=1;shadow=0;dashed=0;html=1;strokeColor=none;fillColor=#505050;labelPosition=center;verticalLabelPosition=bottom;verticalAlign=top;outlineConnect=0;align=center;shape=mxgraph.office.concepts.website;" vertex="1" parent="D-2691LFuYxoZoFbfcj9-54">
          <mxGeometry x="1360" y="710" width="120" height="100" as="geometry" />
        </mxCell>
        <mxCell id="h6mTjnBUFlngQ0IK8-6t-4" value="&lt;font style=&quot;font-size: 13px;&quot;&gt;Website&lt;/font&gt;" style="text;html=1;align=center;verticalAlign=middle;resizable=0;points=[];autosize=1;strokeColor=none;fillColor=none;" vertex="1" parent="D-2691LFuYxoZoFbfcj9-54">
          <mxGeometry x="1385" y="822" width="70" height="30" as="geometry" />
        </mxCell>
      </root>
    </mxGraphModel>
  </diagram>
</mxfile>
